<svg data-v-423bf9ae="" xmlns="http://www.w3.org/2000/svg" viewBox="0 0 546.5753027932961 60" class="font"><!----><!----><!----><g data-v-423bf9ae="" id="2a44383a-da37-412b-8a3f-c394aa071b6d" fill="black" transform="matrix(4.325882911682129,0,0,4.325882911682129,-5.580367565155029,-11.463591575622559)"><path d="M1.36 13.30C3.65 13.30 4.31 13.43 5.54 13.43C8.25 13.43 10.30 11.28 10.30 8.39C10.30 4.59 7.29 3.50 4.40 3.50L1.29 3.50C1.29 3.50 1.36 3.61 1.43 4.97C1.46 5.64 1.51 8.58 1.51 9.42C1.51 12.91 1.36 13.30 1.36 13.30ZM3.16 11.94C3.14 11.07 3.12 10.22 3.12 9.37C3.12 7.64 3.16 4.26 3.16 4.26C3.39 4.24 3.63 4.24 3.85 4.24C6.12 4.24 8.50 5.39 8.50 8.65C8.50 10.81 7.25 12.60 5.10 12.60C4.35 12.60 3.18 12.52 3.16 11.94ZM13.03 4.97C13.55 4.97 13.99 4.54 13.99 4.03C13.99 3.51 13.55 3.08 13.03 3.08C12.53 3.08 12.10 3.51 12.10 4.03C12.10 4.54 12.53 4.97 13.03 4.97ZM13.86 13.50C13.86 12.63 13.80 11.45 13.80 10.25C13.80 9.11 13.86 7.97 13.86 7.03C13.86 6.48 13.30 6.16 12.67 6.16C12.45 6.16 12.22 6.22 11.98 6.29C11.98 6.29 12.19 6.41 12.26 7.77C12.29 8.44 12.32 9.18 12.32 10.02C12.32 15.15 12.03 15.39 11.06 16.17L11.09 16.24C12.66 16.24 13.86 15.41 13.86 13.50ZM15.47 11.63C15.47 12.66 16.16 13.51 17.33 13.51C18.21 13.51 18.91 13.02 19.24 12.43L19.29 12.46C19.31 13.20 19.91 13.44 20.48 13.44C21.69 13.44 22.04 12.57 22.04 12.57L21.98 12.53C21.98 12.53 21.73 12.73 21.45 12.73C20.76 12.73 20.75 11.72 20.75 11.17L20.75 11.00C20.75 10.23 20.79 9.30 20.79 8.55C20.79 7.28 20.52 6.09 18.54 6.09C17.30 6.09 16.17 6.96 15.95 7.80L16.00 7.85C16.52 7.39 17.25 7.01 17.93 7.01C19.01 7.01 19.28 7.67 19.28 8.85L19.28 8.97C17.75 9.00 15.47 9.60 15.47 11.63ZM17.05 11.37C17.05 9.88 18.70 9.63 19.28 9.53C19.28 10.25 19.24 10.99 19.24 11.55C19.24 12.08 18.47 12.52 17.99 12.52C17.50 12.52 17.05 12.21 17.05 11.37ZM22.99 13.30C23.32 13.37 23.69 13.44 23.98 13.44C24.47 13.44 24.86 13.24 24.86 12.49C24.86 11.16 24.81 10.21 24.81 8.95C24.81 7.63 25.73 6.94 26.49 6.94C27.69 6.94 27.72 7.87 27.72 8.83C27.72 10.26 27.68 11.10 27.68 12.31C27.68 13.15 28.32 13.44 28.94 13.44C30.14 13.44 30.49 12.57 30.49 12.57L30.44 12.53C30.44 12.53 30.18 12.73 29.90 12.73C29.22 12.73 29.20 11.89 29.20 11.26C29.20 10.05 29.26 9.13 29.26 8.11C29.26 7.08 29.06 6.09 27.22 6.09C26.21 6.09 25.09 6.57 24.77 7.29L24.71 7.28C24.71 7.28 24.77 7.11 24.77 6.93C24.77 6.50 24.32 6.16 23.67 6.16C23.45 6.16 23.23 6.22 22.99 6.29C22.99 6.29 23.20 6.41 23.27 7.77C23.30 8.44 23.32 9.17 23.32 9.87C23.32 12.38 23.09 13.26 22.99 13.30ZM31.15 14.63C31.15 15.41 32.13 16.52 34.02 16.52C35.97 16.52 37.37 15.54 37.37 14.21C37.37 11.79 33.12 12.67 33.12 11.62C33.12 11.52 33.21 11.31 33.33 11.13C33.53 11.16 33.74 11.16 33.98 11.16C35.80 11.16 37.10 10.04 37.10 8.51C37.10 7.73 36.82 7.13 36.29 6.72C36.96 6.57 37.72 6.17 37.72 5.47C37.72 4.93 37.16 4.94 36.67 4.89C36.60 5.71 36.40 6.36 35.67 6.38C35.28 6.24 34.79 6.16 34.24 6.16C32.42 6.16 31.12 7.29 31.12 8.81C31.12 9.98 31.71 10.74 32.83 11.03C32.56 11.27 32.17 11.73 32.17 12.31C32.17 14.35 36.06 13.52 36.06 14.74C36.06 15.54 35.18 15.90 34.36 15.90C32.80 15.90 32.38 14.67 32.34 14C31.86 14 31.15 13.99 31.15 14.63ZM34.16 10.53C33.10 10.53 32.68 9.59 32.68 8.51C32.68 7.57 33.28 6.79 34.05 6.79C35.11 6.79 35.53 7.73 35.53 8.81C35.53 9.74 34.94 10.53 34.16 10.53ZM38.39 9.97C38.39 11.79 39.59 13.51 41.94 13.51C44.35 13.51 45.64 11.51 45.64 9.42C45.64 7.73 44.44 6.09 42.08 6.09C39.66 6.09 38.39 7.97 38.39 9.97ZM40.10 9.73C40.10 8.23 40.68 6.73 41.93 6.73C43.27 6.73 43.93 8.20 43.93 9.67C43.93 11.27 43.33 12.87 42.08 12.87C40.75 12.87 40.10 11.31 40.10 9.73ZM52.77 11.83C53.28 13.51 54.94 13.51 54.94 13.51C54.94 13.51 55.12 12.77 55.34 12.14L56.42 9.14C56.52 8.85 56.56 8.54 56.56 8.54L56.63 8.54C57.01 9.84 57.32 10.99 57.55 11.83C58.00 13.44 59.72 13.51 59.72 13.51C59.72 13.51 59.91 12.77 60.13 12.14L62.55 5.42C63.06 4.02 63.59 3.61 63.59 3.61L63.59 3.54C63.59 3.54 63.39 3.39 62.96 3.39C61.71 3.39 62.08 4.02 59.47 11.68L59.40 11.68C58.60 9.53 57.51 5.96 57.16 4.30C57.04 3.70 56.48 3.39 55.99 3.39C55.10 3.39 54.96 3.57 54.96 3.57C54.96 3.57 56.04 5.98 56.04 7.08C56.04 7.85 55.26 10.11 54.68 11.68L54.61 11.68C53.76 9.53 52.50 5.96 52.09 4.30C51.95 3.70 51.41 3.39 50.92 3.39C49.97 3.39 49.64 3.57 49.64 3.57C49.64 3.57 49.91 3.93 50.32 4.80C51.03 6.34 52.22 10.07 52.77 11.83ZM63.76 9.98C63.76 12.04 65.14 13.51 67.02 13.51C69.37 13.51 69.85 11.73 69.85 11.73L69.78 11.66C69.78 11.66 68.73 12.46 67.58 12.46C66.14 12.46 65.35 11.31 65.35 9.63L65.41 9.60C65.41 9.60 66.14 10.00 66.95 10.00C68.18 10.00 69.65 9.49 69.65 8.09C69.65 7.14 68.92 6.09 67.07 6.09C65.03 6.09 63.76 8.05 63.76 9.98ZM65.37 8.96C65.37 8.43 65.90 6.73 66.89 6.73C67.69 6.73 67.98 7.42 67.98 8.08C67.98 8.95 67.30 9.30 66.67 9.30C66.08 9.30 65.37 9.07 65.37 8.96ZM71.41 12.24C71.41 13.08 72.46 13.51 73.63 13.51C76.41 13.51 77.74 11.72 77.74 9.28C77.74 7.50 76.76 6.09 75.17 6.09C73.46 6.09 72.91 7.20 72.91 7.20L72.87 7.18C72.87 7.18 73.01 6.03 73.01 4.94C73.01 3.28 72.94 2.66 71.18 2.65L71.13 2.70C71.41 2.98 71.43 5.60 71.43 6.89C71.43 7.92 71.44 9.02 71.44 10.05C71.44 10.75 71.41 11.47 71.41 12.24ZM73.82 12.87C72.93 12.87 72.88 11.82 72.88 10.60C72.88 9.94 72.88 9.28 72.95 8.68C73.08 7.62 73.71 6.99 74.55 6.99C75.52 6.99 76.06 8.32 76.06 9.60C76.06 11.21 75.33 12.87 73.82 12.87ZM79.67 13.30C80.02 13.36 80.33 13.44 80.63 13.44C81.12 13.44 81.54 13.24 81.54 12.49C81.54 10.95 81.47 9.09 81.47 8.75L81.66 8.81C82.88 9.16 83.96 13.38 86.17 13.38C86.58 13.38 87.40 13.20 87.40 13.20L87.40 13.10C86.23 12.43 83.86 8.90 83.86 8.90L83.86 8.83C83.86 8.83 86.13 8.50 86.13 6.02C86.13 4.62 84.92 3.50 82.50 3.50L80.77 3.50C80.19 3.50 79.65 3.47 79.65 3.47C79.65 3.47 79.72 3.61 79.79 4.97C79.83 5.87 79.86 8.26 79.86 9.42C79.86 12.91 79.67 13.30 79.67 13.30ZM81.47 8.08C81.47 7.04 81.48 5.42 81.52 4.24L81.96 4.24C83.82 4.24 84.48 5.19 84.48 6.31C84.48 7.73 83.66 8.23 82.67 8.23C82.28 8.23 81.87 8.22 81.47 8.08ZM88.10 9.98C88.10 12.04 89.49 13.51 91.36 13.51C93.72 13.51 94.19 11.73 94.19 11.73L94.12 11.66C94.12 11.66 93.07 12.46 91.92 12.46C90.48 12.46 89.70 11.31 89.70 9.63L89.75 9.60C89.75 9.60 90.48 10.00 91.29 10.00C92.53 10.00 94.00 9.49 94.00 8.09C94.00 7.14 93.27 6.09 91.42 6.09C89.38 6.09 88.10 8.05 88.10 9.98ZM89.71 8.96C89.71 8.43 90.24 6.73 91.24 6.73C92.04 6.73 92.33 7.42 92.33 8.08C92.33 8.95 91.64 9.30 91.01 9.30C90.43 9.30 89.71 9.07 89.71 8.96ZM95.65 13.30C95.98 13.37 96.35 13.44 96.64 13.44C97.13 13.44 97.52 13.24 97.52 12.49C97.52 11.16 97.47 10.21 97.47 8.95C97.47 7.67 98.28 7.01 98.87 7.01C100.07 7.01 100.10 7.91 100.10 8.83C100.10 10.26 100.06 11.16 100.06 12.36C100.06 13.33 100.58 13.37 101.08 13.44C101.30 13.19 101.63 12.98 101.63 11.98C101.63 11.90 101.60 9.51 101.60 9.48C101.60 8.81 101.81 7.01 103.08 7.01C104.24 7.01 104.27 7.91 104.27 8.83C104.27 10.26 104.23 11.10 104.23 12.31C104.23 13.15 104.87 13.44 105.49 13.44C106.69 13.44 107.04 12.57 107.04 12.57L106.99 12.53C106.99 12.53 106.74 12.73 106.46 12.73C105.77 12.73 105.76 11.89 105.76 11.26C105.76 10.05 105.81 9.13 105.81 8.11C105.81 7.13 105.62 6.16 103.77 6.16C102.87 6.16 101.86 6.61 101.56 7.29L101.50 7.28C101.44 6.66 100.91 6.16 99.60 6.16C98.70 6.16 97.69 6.61 97.43 7.29L97.37 7.28C97.37 7.28 97.43 7.11 97.43 6.93C97.43 6.50 96.98 6.16 96.33 6.16C96.11 6.16 95.89 6.22 95.65 6.29C95.65 6.29 95.86 6.41 95.93 7.77C95.96 8.44 95.98 9.17 95.98 9.87C95.98 12.38 95.75 13.26 95.65 13.30ZM107.70 9.97C107.70 11.79 108.91 13.51 111.26 13.51C113.67 13.51 114.95 11.51 114.95 9.42C114.95 7.73 113.75 6.09 111.40 6.09C108.98 6.09 107.70 7.97 107.70 9.97ZM109.41 9.73C109.41 8.23 110.00 6.73 111.24 6.73C112.59 6.73 113.25 8.20 113.25 9.67C113.25 11.27 112.64 12.87 111.40 12.87C110.07 12.87 109.41 11.31 109.41 9.73ZM116.72 10.79C116.72 12.36 117.19 13.51 118.83 13.51C120.54 13.51 121.00 11.90 121.00 11.90L120.93 11.84C120.93 11.84 120.13 12.50 119.45 12.50C118.37 12.50 118.24 11.33 118.24 9.94C118.24 8.88 118.29 7.22 118.29 7.22C118.29 7.22 119.27 7.25 119.42 7.25C119.92 7.25 120.20 7.13 120.20 6.54C120.20 6.47 120.20 6.24 120.19 6.16C120.19 6.16 120.01 6.30 119.43 6.30L118.29 6.30L118.57 4.77L118.24 4.66C118.06 5.12 116.73 6.30 116.13 6.30L116.13 6.89C116.68 7.06 116.77 7.11 116.77 8.30C116.77 8.83 116.72 9.88 116.72 10.79ZM121.55 9.98C121.55 12.04 122.93 13.51 124.81 13.51C127.16 13.51 127.64 11.73 127.64 11.73L127.57 11.66C127.57 11.66 126.52 12.46 125.37 12.46C123.93 12.46 123.14 11.31 123.14 9.63L123.20 9.60C123.20 9.60 123.93 10.00 124.74 10.00C125.97 10.00 127.44 9.49 127.44 8.09C127.44 7.14 126.71 6.09 124.87 6.09C122.82 6.09 121.55 8.05 121.55 9.98ZM123.16 8.96C123.16 8.43 123.69 6.73 124.68 6.73C125.48 6.73 125.78 7.42 125.78 8.08C125.78 8.95 125.09 9.30 124.46 9.30C123.87 9.30 123.16 9.07 123.16 8.96Z"></path></g><!----><!----></svg>