<?xml version="1.0" encoding="UTF-8"?>
<svg viewBox="0 0 133.26 183.53" xmlns="http://www.w3.org/2000/svg">
<defs>
<style>.cls-1{fill:#007ac1;}</style>
</defs>
<g data-name="Capa 2">
<g data-name="Capa 1">
<g data-name="#000000ff">
<path d="M0,0Q33.63,0,67.25,0c15.61.4,32.1,3.75,44.2,14.25,8.87,8,16.24,18.19,19,30C134.2,61,133,78.36,133.25,95.43q-18,4.75-36,9.66c-.13-15.25.21-30.55-1.4-45.73A28.93,28.93,0,0,0,86,39.7c-6-5.17-14-7.56-21.79-7.45-9.4,0-18.8,0-28.2,0q0,46.1,0,92.19c-12.06,4.29-24.1,8.66-36,13.37Q0,68.92,0,0Z"/>
</g>
<g data-name="#007ac1ff">
<path class="cls-1" d="m14.94 183.38c37.35-21.53 76.81-39.26 117.19-54.26-1.91 15.59-9.15 30.75-21.58 40.64s-28.67 13.69-44.32 13.75c-17.1-0.09-34.23 0.18-51.29-0.13z"/>
</g>
</g>
</g>
</svg>