<svg xmlns="http://www.w3.org/2000/svg" viewBox="0 0 64 64">
  <path
    fill="#fff"
    d="M51,6H13c-3.85,0-7,3.15-7,7v38c0,3.85,3.15,7,7,7h38c3.85,0,7-3.15,7-7V13 C58,9.15,54.85,6,51,6z M13,56c-2.77,0-5-2.23-5-5V13c0-2.77,2.23-5,5-5h38c2.77,0,5,2.23,5,5v38c0,2.77-2.23,5-5,5H13z"
  />
  <path
    fill="#fff"
    d="M47,48c-0.552,0-1,0.448-1,1v2c0,0.552,0.448,1,1,1s1-0.448,1-1v-2C48,48.448,47.552,48,47,48z M52,52c0.552,0,1-0.448,1-1v-2c0-0.552-0.448-1-1-1s-1,0.448-1,1v2C51,51.552,51.448,52,52,52z M32,48c-0.552,0-1,0.448-1,1v2 c0,0.552,0.448,1,1,1c0.552,0,1-0.448,1-1v-2C33,48.448,32.552,48,32,48z M27,48c-0.552,0-1,0.448-1,1v2c0,0.552,0.448,1,1,1 s1-0.448,1-1v-2C28,48.448,27.552,48,27,48z M22,48c-0.552,0-1,0.448-1,1v2c0,0.552,0.448,1,1,1s1-0.448,1-1v-2 C23,48.448,22.552,48,22,48z M17,48c-0.552,0-1,0.448-1,1v2c0,0.552,0.448,1,1,1s1-0.448,1-1v-2C18,48.448,17.552,48,17,48z M12,52c0.552,0,1-0.448,1-1v-2c0-0.552-0.448-1-1-1s-1,0.448-1,1v2C11,51.552,11.448,52,12,52z M42,48c-0.552,0-1,0.448-1,1v2 c0,0.552,0.448,1,1,1s1-0.448,1-1v-2C43,48.448,42.552,48,42,48z M37,48c-0.552,0-1,0.448-1,1v2c0,0.552,0.448,1,1,1 s1-0.448,1-1v-2C38,48.448,37.552,48,37,48z"
  />
  <path fill="#fff" d="M13 6.625L18.875 6.625L7 41L7 35.25z" />
  <path fill="#fff" d="M24 7L29.875 7L7 44L7 42z" />
  <path fill="#fff" d="M21.625 18h3.375v14H21.625Z" />
  <path fill="#fff" d="M11.75 34h3.25v12H11.75Z" />
  <path fill="#fff" d="M18.75 34h3.25v12H18.75Z" />
  <path fill="#fff" d="M18.75 46L21.75 46L15 34L12 34z" />
  <path fill="#fff" d="M34 46L37 46L34 34L31 34z" />
  <path fill="#fff" d="M40 46L43 46L40 34L37 34z" />
  <path fill="#fff" d="M37 46L34 46L37 34L40 34z" />
  <path fill="#fff" d="M43 46L40 46L43 34L46 34z" />
  <path fill="#fff" d="M24 18h6v3H24Z" />
  <path fill="#fff" d="M23 24h6v3H23Z" />
  <path fill="#fff" d="M23 34h3v12H23Z" />
  <path fill="#fff" d="M25 37L31 37L30.625 34L25 34z" />
  <path fill="#fff" d="M25 38.5h5v3H25Z" />
  <path fill="#fff" d="M25 46L30.625 46L31 43L25 43z" />
  <path fill="#fff" d="M50 32L54 32L46 18L42 18z" />
  <path fill="#fff" d="M46 32L42 32L50 18L54 18z" />
  <path
    fill="#fff"
    d="M36.5,18c-3.59,0-6.5,3.13-6.5,7s2.91,7,6.5,7s6.5-3.13,6.5-7S40.09,18,36.5,18z M38,27.5 c0,0.83-0.67,1.5-1.5,1.5S35,28.33,35,27.5v-5c0-0.83,0.67-1.5,1.5-1.5s1.5,0.67,1.5,1.5V27.5z"
  />
  <path
    fill="#fff"
    d="M50.25,45.909c-1.443,0-3.363-0.646-4.309-3.718l2.867-0.883c0.492,1.601,1.087,1.601,1.441,1.601 c0.376,0,1.25-0.073,1.25-0.75c0-0.33-1.148-0.803-1.835-1.086C48.118,40.436,46,39.562,46,37.25c0-2.173,1.787-3.75,4.25-3.75 c1.628,0,3.655,1.187,4.205,3.386l-2.91,0.729c-0.197-0.787-0.94-1.114-1.295-1.114c-0.051,0-1.25,0.009-1.25,0.75 c0,0.304,1.177,0.789,1.809,1.05c1.558,0.642,3.691,1.521,3.691,3.859C54.5,44.367,52.752,45.909,50.25,45.909z"
  />
</svg>
