<?xml version="1.0" encoding="UTF-8" standalone="no"?>
<!-- Generator: Adobe Illustrator 16.0.0, SVG Export Plug-In . SVG Version: 6.00 Build 0)  -->
<svg xmlns:dc="http://purl.org/dc/elements/1.1/" xmlns:cc="http://creativecommons.org/ns#" xmlns:rdf="http://www.w3.org/1999/02/22-rdf-syntax-ns#" xmlns:svg="http://www.w3.org/2000/svg" xmlns="http://www.w3.org/2000/svg" xmlns:sodipodi="http://sodipodi.sourceforge.net/DTD/sodipodi-0.dtd" xmlns:inkscape="http://www.inkscape.org/namespaces/inkscape" version="1.1" id="Layer_1" x="0px" y="0px" width="188px" height="61.5px" viewBox="36.5 14.5 188 61.5" enable-background="new 36.5 14.5 188 61.5" xml:space="preserve" sodipodi:docname="logo_golf.svg" inkscape:version="0.92.2 (5c3e80d, 2017-08-06)">
  <metadata id="metadata53">
    <rdf:RDF>
      <cc:Work rdf:about="">
        <dc:format>
          image/svg+xml
        </dc:format>
        <dc:type rdf:resource="http://purl.org/dc/dcmitype/StillImage"/>
      </cc:Work>
    </rdf:RDF>
  </metadata>
  <defs id="defs51"/>
  <sodipodi:namedview pagecolor="#ffffff" bordercolor="#666666" borderopacity="1" objecttolerance="10" gridtolerance="10" guidetolerance="10" inkscape:pageopacity="0" inkscape:pageshadow="2" inkscape:window-width="1920" inkscape:window-height="1028" id="namedview49" showgrid="false" inkscape:zoom="7.4255319" inkscape:cx="91.291704" inkscape:cy="24.703602" inkscape:window-x="-8" inkscape:window-y="-8" inkscape:window-maximized="1" inkscape:current-layer="Layer_1"/>
  <g id="g16">
    <path style="fill:#ffffff" inkscape:connector-curvature="0" id="path2" d="m 99.963,51.877 c 2.56,-3.394 1.798,-8.32 -1.622,-10.816 -1.149,-0.832 -2.488,-1.304 -3.899,-1.377 1.567,-1.33 2.605,-3.193 2.761,-5.257 0.178,-2.369 -0.785,-4.792 -2.511,-6.323 -2.5,-2.121 -6.128,-2.678 -9.02,-0.987 0.404,-2.428 -0.406,-4.936 -2.232,-6.755 -1.346,-1.373 -3.282,-2.159 -5.314,-2.159 -2.754,0 -5.537,1.612 -6.765,4.113 -1.228,-2.501 -4.012,-4.113 -6.765,-4.113 -2.033,0 -3.969,0.787 -5.314,2.159 -1.828,1.819 -2.635,4.328 -2.233,6.755 -2.89,-1.69 -6.52,-1.133 -9.02,0.987 -1.727,1.531 -2.689,3.954 -2.511,6.323 0.157,2.065 1.195,3.927 2.762,5.257 -1.411,0.073 -2.752,0.545 -3.899,1.377 -1.3,0.942 -2.282,2.302 -2.815,3.811 -0.728,2.56 -0.292,5.061 1.224,7.045 1.469,1.917 3.731,3.017 6.208,3.017 h 44.73 c 2.477,0 4.74,-1.1 6.209,-3.017 z"/>
    <path style="fill:#e06427" inkscape:connector-curvature="0" id="path4" d="m 53.298,27.811 c -1.476,0 -2.908,0.542 -4.141,1.568 -1.317,1.166 -2.08,3.098 -1.942,4.921 0.1,1.32 0.698,3.208 2.987,4.699 L 67.155,50.68 58.941,31.93 c -1.025,-2.581 -3.132,-4.119 -5.643,-4.119"/>
    <path style="fill:#b42946" inkscape:connector-curvature="0" id="path6" d="m 69.714,22.833 c 0.606,1.142 0.969,2.439 0.751,3.869 0,0 -3.284,19.745 -3.314,19.752 L 58.929,27.673 c -0.716,-2.218 -0.037,-4.529 1.56,-6.114 1.611,-1.648 4.279,-2.1 6.379,-1.2 1.121,0.481 2.181,1.38 2.846,2.474"/>
    <path style="fill:#008bc1" inkscape:connector-curvature="0" id="path8" d="m 89.421,27.811 c 1.478,0 2.91,0.542 4.142,1.568 1.316,1.166 2.08,3.098 1.944,4.921 -0.101,1.32 -0.702,3.208 -2.99,4.699 L 75.565,50.68 83.779,31.93 c 1.026,-2.581 3.134,-4.119 5.642,-4.119"/>
    <path style="fill:#595996" inkscape:connector-curvature="0" id="path10" d="m 74.726,25.938 c 0.194,0 0.498,0.152 0.535,0.341 -1.04,0.659 -2.771,1.391 -2.558,2.912 l 0.244,1.662 c 0.966,5.792 2.601,15.596 2.624,15.602 l 8.22,-18.781 c 0.715,-2.218 0.039,-4.529 -1.559,-6.114 -1.609,-1.648 -4.278,-2.102 -6.379,-1.2 -1.12,0.481 -2.18,1.38 -2.846,2.475 -0.496,0.935 -0.829,1.974 -0.813,3.105 h 2.532 z"/>
    <path style="fill:#03a84b" inkscape:connector-curvature="0" id="path12" d="m 94.052,41.374 c 2.657,0 4.87,1.953 5.468,3.962 0.583,1.98 0.243,4 -0.938,5.547 -1.145,1.494 -2.914,2.352 -4.857,2.352 H 74.845 L 90.412,42.496 c 1.154,-0.733 2.416,-1.122 3.64,-1.122"/>
    <path style="fill:#f0b428" inkscape:connector-curvature="0" id="path14" d="m 48.669,41.374 c -2.657,0 -4.87,1.953 -5.469,3.962 -0.582,1.98 -0.242,4 0.94,5.547 1.145,1.494 2.912,2.352 4.855,2.352 H 67.876 L 52.309,42.496 c -1.154,-0.733 -2.416,-1.122 -3.64,-1.122"/>
  </g>
  
  <path style="fill:#000000" inkscape:connector-curvature="0" id="path18" d="m 156.07,48.192 c -6.037,0 -10.949,-5.211 -10.949,-11.613 0,-6.402 4.912,-11.611 10.949,-11.611 6.035,0 10.945,5.209 10.945,11.611 0,6.402 -4.91,11.613 -10.945,11.613 m 46.879,-22.768 h 12.381 c 0.654,0 1.271,-0.383 1.57,-0.967 l 2.553,-5.841 h -19.688 c -2.316,0 -4.201,1.882 -4.201,4.197 v 30.335 l -1.957,-4.461 c -0.193,-0.438 -0.719,-0.949 -1.52,-0.949 H 179.181 V 20.946 c 0,-1.286 -1.049,-2.331 -2.334,-2.331 h -5.051 v 5.64 c 1.619,3.292 1.932,6.38 1.994,7.422 -2.146,-7.636 -9.057,-13.465 -17.721,-13.465 -9.977,0 -17.097,7.524 -18.195,15.715 h -9.888 c -0.918,0 -1.324,0.632 -1.451,0.897 l -2.36,5.39 h 11.079 c -1.168,4.019 -4.896,7.977 -10.558,7.977 -6.197,0 -11.05,-5.102 -11.05,-11.613 0,-6.511 4.9,-11.611 11.154,-11.611 2.525,0 5.447,1.058 8.018,2.904 0.974,0.675 1.885,-0.143 2.044,-0.429 l 2.577,-4.487 c -1.905,-1.673 -6.354,-4.742 -12.483,-4.742 -10.511,0 -18.746,8.042 -18.746,18.314 0,10.157 8.248,18.418 18.383,18.418 8.556,0 16.109,-6.104 17.965,-14.517 0,0 0.297,3.264 -1.217,7.157 3.504,4.679 8.865,7.36 14.728,7.36 7.537,0 12.977,-4.333 15.727,-8.82 v 4.193 c 0,2.328 1.883,4.224 4.201,4.224 h 24.611 c 1.289,0 2.34,-1.046 2.34,-2.333 V 40.224 l 10.529,-0.002 c 0.654,0 1.275,-0.382 1.572,-0.965 l 2.34,-5.329 h -14.441 v -8.504 z"/>
  
</svg>