<svg data-v-fde0c5aa="" xmlns="http://www.w3.org/2000/svg" viewBox="0 0 300 300" class="iconLeftSlogan"><!----><defs data-v-fde0c5aa=""><!----></defs><rect data-v-fde0c5aa="" fill="#00242B" x="0" y="0" width="300px" height="300px" class="logo-background-square"></rect><defs data-v-fde0c5aa=""><!----></defs><g data-v-fde0c5aa="" id="db7f8bdf-488a-410d-95d6-a7b88a6c88cc" fill="#7DE38D" transform="matrix(1.55538010597229,0,0,1.55538010597229,61.47129135384746,125.09168130735267)"><path d="M1.36 13.30C3.65 13.30 4.31 13.43 5.54 13.43C8.25 13.43 10.30 11.28 10.30 8.39C10.30 4.59 7.29 3.50 4.40 3.50L1.29 3.50C1.29 3.50 1.36 3.61 1.43 4.97C1.46 5.64 1.51 8.58 1.51 9.42C1.51 12.91 1.36 13.30 1.36 13.30ZM3.16 11.94C3.14 11.07 3.12 10.22 3.12 9.37C3.12 7.64 3.16 4.26 3.16 4.26C3.39 4.24 3.63 4.24 3.85 4.24C6.12 4.24 8.50 5.39 8.50 8.65C8.50 10.81 7.25 12.60 5.10 12.60C4.35 12.60 3.18 12.52 3.16 11.94ZM13.03 4.97C13.55 4.97 13.99 4.54 13.99 4.03C13.99 3.51 13.55 3.08 13.03 3.08C12.53 3.08 12.10 3.51 12.10 4.03C12.10 4.54 12.53 4.97 13.03 4.97ZM13.86 13.50C13.86 12.63 13.80 11.45 13.80 10.25C13.80 9.11 13.86 7.97 13.86 7.03C13.86 6.48 13.30 6.16 12.67 6.16C12.45 6.16 12.22 6.22 11.98 6.29C11.98 6.29 12.19 6.41 12.26 7.77C12.29 8.44 12.32 9.18 12.32 10.02C12.32 15.15 12.03 15.39 11.06 16.17L11.09 16.24C12.66 16.24 13.86 15.41 13.86 13.50ZM15.47 11.63C15.47 12.66 16.16 13.51 17.33 13.51C18.21 13.51 18.91 13.02 19.24 12.43L19.29 12.46C19.31 13.20 19.91 13.44 20.48 13.44C21.69 13.44 22.04 12.57 22.04 12.57L21.98 12.53C21.98 12.53 21.73 12.73 21.45 12.73C20.76 12.73 20.75 11.72 20.75 11.17L20.75 11.00C20.75 10.23 20.79 9.30 20.79 8.55C20.79 7.28 20.52 6.09 18.54 6.09C17.30 6.09 16.17 6.96 15.95 7.80L16.00 7.85C16.52 7.39 17.25 7.01 17.93 7.01C19.01 7.01 19.28 7.67 19.28 8.85L19.28 8.97C17.75 9.00 15.47 9.60 15.47 11.63ZM17.05 11.37C17.05 9.88 18.70 9.63 19.28 9.53C19.28 10.25 19.24 10.99 19.24 11.55C19.24 12.08 18.47 12.52 17.99 12.52C17.50 12.52 17.05 12.21 17.05 11.37ZM22.99 13.30C23.32 13.37 23.69 13.44 23.98 13.44C24.47 13.44 24.86 13.24 24.86 12.49C24.86 11.16 24.81 10.21 24.81 8.95C24.81 7.63 25.73 6.94 26.49 6.94C27.69 6.94 27.72 7.87 27.72 8.83C27.72 10.26 27.68 11.10 27.68 12.31C27.68 13.15 28.32 13.44 28.94 13.44C30.14 13.44 30.49 12.57 30.49 12.57L30.44 12.53C30.44 12.53 30.18 12.73 29.90 12.73C29.22 12.73 29.20 11.89 29.20 11.26C29.20 10.05 29.26 9.13 29.26 8.11C29.26 7.08 29.06 6.09 27.22 6.09C26.21 6.09 25.09 6.57 24.77 7.29L24.71 7.28C24.71 7.28 24.77 7.11 24.77 6.93C24.77 6.50 24.32 6.16 23.67 6.16C23.45 6.16 23.23 6.22 22.99 6.29C22.99 6.29 23.20 6.41 23.27 7.77C23.30 8.44 23.32 9.17 23.32 9.87C23.32 12.38 23.09 13.26 22.99 13.30ZM31.15 14.63C31.15 15.41 32.13 16.52 34.02 16.52C35.97 16.52 37.37 15.54 37.37 14.21C37.37 11.79 33.12 12.67 33.12 11.62C33.12 11.52 33.21 11.31 33.33 11.13C33.53 11.16 33.74 11.16 33.98 11.16C35.80 11.16 37.10 10.04 37.10 8.51C37.10 7.73 36.82 7.13 36.29 6.72C36.96 6.57 37.72 6.17 37.72 5.47C37.72 4.93 37.16 4.94 36.67 4.89C36.60 5.71 36.40 6.36 35.67 6.38C35.28 6.24 34.79 6.16 34.24 6.16C32.42 6.16 31.12 7.29 31.12 8.81C31.12 9.98 31.71 10.74 32.83 11.03C32.56 11.27 32.17 11.73 32.17 12.31C32.17 14.35 36.06 13.52 36.06 14.74C36.06 15.54 35.18 15.90 34.36 15.90C32.80 15.90 32.38 14.67 32.34 14C31.86 14 31.15 13.99 31.15 14.63ZM34.16 10.53C33.10 10.53 32.68 9.59 32.68 8.51C32.68 7.57 33.28 6.79 34.05 6.79C35.11 6.79 35.53 7.73 35.53 8.81C35.53 9.74 34.94 10.53 34.16 10.53ZM38.39 9.97C38.39 11.79 39.59 13.51 41.94 13.51C44.35 13.51 45.64 11.51 45.64 9.42C45.64 7.73 44.44 6.09 42.08 6.09C39.66 6.09 38.39 7.97 38.39 9.97ZM40.10 9.73C40.10 8.23 40.68 6.73 41.93 6.73C43.27 6.73 43.93 8.20 43.93 9.67C43.93 11.27 43.33 12.87 42.08 12.87C40.75 12.87 40.10 11.31 40.10 9.73ZM52.77 11.83C53.28 13.51 54.94 13.51 54.94 13.51C54.94 13.51 55.12 12.77 55.34 12.14L56.42 9.14C56.52 8.85 56.56 8.54 56.56 8.54L56.63 8.54C57.01 9.84 57.32 10.99 57.55 11.83C58.00 13.44 59.72 13.51 59.72 13.51C59.72 13.51 59.91 12.77 60.13 12.14L62.55 5.42C63.06 4.02 63.59 3.61 63.59 3.61L63.59 3.54C63.59 3.54 63.39 3.39 62.96 3.39C61.71 3.39 62.08 4.02 59.47 11.68L59.40 11.68C58.60 9.53 57.51 5.96 57.16 4.30C57.04 3.70 56.48 3.39 55.99 3.39C55.10 3.39 54.96 3.57 54.96 3.57C54.96 3.57 56.04 5.98 56.04 7.08C56.04 7.85 55.26 10.11 54.68 11.68L54.61 11.68C53.76 9.53 52.50 5.96 52.09 4.30C51.95 3.70 51.41 3.39 50.92 3.39C49.97 3.39 49.64 3.57 49.64 3.57C49.64 3.57 49.91 3.93 50.32 4.80C51.03 6.34 52.22 10.07 52.77 11.83ZM63.76 9.98C63.76 12.04 65.14 13.51 67.02 13.51C69.37 13.51 69.85 11.73 69.85 11.73L69.78 11.66C69.78 11.66 68.73 12.46 67.58 12.46C66.14 12.46 65.35 11.31 65.35 9.63L65.41 9.60C65.41 9.60 66.14 10.00 66.95 10.00C68.18 10.00 69.65 9.49 69.65 8.09C69.65 7.14 68.92 6.09 67.07 6.09C65.03 6.09 63.76 8.05 63.76 9.98ZM65.37 8.96C65.37 8.43 65.90 6.73 66.89 6.73C67.69 6.73 67.98 7.42 67.98 8.08C67.98 8.95 67.30 9.30 66.67 9.30C66.08 9.30 65.37 9.07 65.37 8.96ZM71.41 12.24C71.41 13.08 72.46 13.51 73.63 13.51C76.41 13.51 77.74 11.72 77.74 9.28C77.74 7.50 76.76 6.09 75.17 6.09C73.46 6.09 72.91 7.20 72.91 7.20L72.87 7.18C72.87 7.18 73.01 6.03 73.01 4.94C73.01 3.28 72.94 2.66 71.18 2.65L71.13 2.70C71.41 2.98 71.43 5.60 71.43 6.89C71.43 7.92 71.44 9.02 71.44 10.05C71.44 10.75 71.41 11.47 71.41 12.24ZM73.82 12.87C72.93 12.87 72.88 11.82 72.88 10.60C72.88 9.94 72.88 9.28 72.95 8.68C73.08 7.62 73.71 6.99 74.55 6.99C75.52 6.99 76.06 8.32 76.06 9.60C76.06 11.21 75.33 12.87 73.82 12.87ZM79.67 13.30C80.02 13.36 80.33 13.44 80.63 13.44C81.12 13.44 81.54 13.24 81.54 12.49C81.54 10.95 81.47 9.09 81.47 8.75L81.66 8.81C82.88 9.16 83.96 13.38 86.17 13.38C86.58 13.38 87.40 13.20 87.40 13.20L87.40 13.10C86.23 12.43 83.86 8.90 83.86 8.90L83.86 8.83C83.86 8.83 86.13 8.50 86.13 6.02C86.13 4.62 84.92 3.50 82.50 3.50L80.77 3.50C80.19 3.50 79.65 3.47 79.65 3.47C79.65 3.47 79.72 3.61 79.79 4.97C79.83 5.87 79.86 8.26 79.86 9.42C79.86 12.91 79.67 13.30 79.67 13.30ZM81.47 8.08C81.47 7.04 81.48 5.42 81.52 4.24L81.96 4.24C83.82 4.24 84.48 5.19 84.48 6.31C84.48 7.73 83.66 8.23 82.67 8.23C82.28 8.23 81.87 8.22 81.47 8.08ZM88.10 9.98C88.10 12.04 89.49 13.51 91.36 13.51C93.72 13.51 94.19 11.73 94.19 11.73L94.12 11.66C94.12 11.66 93.07 12.46 91.92 12.46C90.48 12.46 89.70 11.31 89.70 9.63L89.75 9.60C89.75 9.60 90.48 10.00 91.29 10.00C92.53 10.00 94.00 9.49 94.00 8.09C94.00 7.14 93.27 6.09 91.42 6.09C89.38 6.09 88.10 8.05 88.10 9.98ZM89.71 8.96C89.71 8.43 90.24 6.73 91.24 6.73C92.04 6.73 92.33 7.42 92.33 8.08C92.33 8.95 91.64 9.30 91.01 9.30C90.43 9.30 89.71 9.07 89.71 8.96ZM95.65 13.30C95.98 13.37 96.35 13.44 96.64 13.44C97.13 13.44 97.52 13.24 97.52 12.49C97.52 11.16 97.47 10.21 97.47 8.95C97.47 7.67 98.28 7.01 98.87 7.01C100.07 7.01 100.10 7.91 100.10 8.83C100.10 10.26 100.06 11.16 100.06 12.36C100.06 13.33 100.58 13.37 101.08 13.44C101.30 13.19 101.63 12.98 101.63 11.98C101.63 11.90 101.60 9.51 101.60 9.48C101.60 8.81 101.81 7.01 103.08 7.01C104.24 7.01 104.27 7.91 104.27 8.83C104.27 10.26 104.23 11.10 104.23 12.31C104.23 13.15 104.87 13.44 105.49 13.44C106.69 13.44 107.04 12.57 107.04 12.57L106.99 12.53C106.99 12.53 106.74 12.73 106.46 12.73C105.77 12.73 105.76 11.89 105.76 11.26C105.76 10.05 105.81 9.13 105.81 8.11C105.81 7.13 105.62 6.16 103.77 6.16C102.87 6.16 101.86 6.61 101.56 7.29L101.50 7.28C101.44 6.66 100.91 6.16 99.60 6.16C98.70 6.16 97.69 6.61 97.43 7.29L97.37 7.28C97.37 7.28 97.43 7.11 97.43 6.93C97.43 6.50 96.98 6.16 96.33 6.16C96.11 6.16 95.89 6.22 95.65 6.29C95.65 6.29 95.86 6.41 95.93 7.77C95.96 8.44 95.98 9.17 95.98 9.87C95.98 12.38 95.75 13.26 95.65 13.30ZM107.70 9.97C107.70 11.79 108.91 13.51 111.26 13.51C113.67 13.51 114.95 11.51 114.95 9.42C114.95 7.73 113.75 6.09 111.40 6.09C108.98 6.09 107.70 7.97 107.70 9.97ZM109.41 9.73C109.41 8.23 110.00 6.73 111.24 6.73C112.59 6.73 113.25 8.20 113.25 9.67C113.25 11.27 112.64 12.87 111.40 12.87C110.07 12.87 109.41 11.31 109.41 9.73ZM116.72 10.79C116.72 12.36 117.19 13.51 118.83 13.51C120.54 13.51 121.00 11.90 121.00 11.90L120.93 11.84C120.93 11.84 120.13 12.50 119.45 12.50C118.37 12.50 118.24 11.33 118.24 9.94C118.24 8.88 118.29 7.22 118.29 7.22C118.29 7.22 119.27 7.25 119.42 7.25C119.92 7.25 120.20 7.13 120.20 6.54C120.20 6.47 120.20 6.24 120.19 6.16C120.19 6.16 120.01 6.30 119.43 6.30L118.29 6.30L118.57 4.77L118.24 4.66C118.06 5.12 116.73 6.30 116.13 6.30L116.13 6.89C116.68 7.06 116.77 7.11 116.77 8.30C116.77 8.83 116.72 9.88 116.72 10.79ZM121.55 9.98C121.55 12.04 122.93 13.51 124.81 13.51C127.16 13.51 127.64 11.73 127.64 11.73L127.57 11.66C127.57 11.66 126.52 12.46 125.37 12.46C123.93 12.46 123.14 11.31 123.14 9.63L123.20 9.60C123.20 9.60 123.93 10.00 124.74 10.00C125.97 10.00 127.44 9.49 127.44 8.09C127.44 7.14 126.71 6.09 124.87 6.09C122.82 6.09 121.55 8.05 121.55 9.98ZM123.16 8.96C123.16 8.43 123.69 6.73 124.68 6.73C125.48 6.73 125.78 7.42 125.78 8.08C125.78 8.95 125.09 9.30 124.46 9.30C123.87 9.30 123.16 9.07 123.16 8.96Z"></path></g><defs data-v-fde0c5aa=""><!----></defs><g data-v-fde0c5aa="" id="df50e793-90fb-4203-934f-f6621c39c877" stroke="none" fill="#7DE38D" transform="matrix(0.08630252629518509,0,0,0.08630252629518509,20.653649085953283,125.69095242723381)"><path d="M338.231 40.267H231.296c-3.241 2.446-5.834 7.917-7.127 14.896v452.089c1.293 7.625 4.105 13.45 7.563 15.826h107.439c2.953-2.804 5.252-8.271 6.405-15.038V56.604c-1.152-7.629-3.887-13.677-7.345-16.337zm-82.612 214.889c-12.953 0-23.389-10.507-23.389-23.389s10.436-23.389 23.389-23.389c12.882 0 23.389 10.507 23.389 23.389 0 12.881-10.507 23.389-23.389 23.389zm59.012-.361c-12.881 0-23.387-10.436-23.387-23.389 0-12.882 10.506-23.389 23.387-23.389 12.953 0 23.389 10.506 23.389 23.389a23.343 23.343 0 01-23.389 23.389zm-29.797-59.16c-29.791 0-53.974-24.176-53.974-53.971 0-29.793 24.183-53.974 53.974-53.974 29.867 0 53.974 24.18 53.974 53.974 0 29.795-24.107 53.971-53.974 53.971zm-1.224-101.97a1.801 1.801 0 013.6 0 1.801 1.801 0 01-3.6 0zm46.85 48.433a1.798 1.798 0 113.597-.001 1.798 1.798 0 01-3.597.001zm-43.827 47.712a1.78 1.78 0 01-1.799 1.799c-.928 0-1.8-.795-1.8-1.799 0-1.006.872-1.799 1.8-1.799 1.013 0 1.799.793 1.799 1.799zm-47.059-48.289a1.8 1.8 0 01-1.799 1.799 1.797 1.797 0 01-1.799-1.799 1.8 1.8 0 013.598 0zm71.601.358c0 14.176-11.442 25.618-25.618 25.618-14.173 0-25.616-11.442-25.616-25.618s11.443-25.616 25.616-25.616c14.175 0 25.618 11.44 25.618 25.616zm-3.528 85.355l6.339 3.955-6.339 4.026v-7.981zm8.925.141h1.658v7.99h-1.658v-7.99zm3.022 0h1.658v7.99h-1.658v-7.99z"></path></g><defs data-v-fde0c5aa=""><!----></defs><g data-v-fde0c5aa="" id="362960db-0754-4881-ac30-33eadb25ce12" fill="#7DE38D" transform="matrix(0.43000802397727966,0,0,0.43000802397727966,63.357329323220156,159.3675348785631)"><path d="M0.28 5.32L0.28 5.32Q0.28 4.76 0.42 3.88L0.42 3.88Q0.42 3.85 0.43 3.78Q0.43 3.71 0.44 3.69Q0.45 3.67 0.46 3.62Q0.46 3.57 0.48 3.55Q0.49 3.53 0.51 3.49Q0.53 3.46 0.56 3.44Q0.59 3.43 0.63 3.42Q0.67 3.40 0.73 3.39Q0.78 3.39 0.85 3.39L0.85 3.39Q1.08 3.39 2.04 3.44Q3.00 3.50 4.80 3.50L4.80 3.50Q7.88 3.50 9.11 3.43L9.11 3.43Q9.13 3.43 9.16 3.42Q9.20 3.42 9.21 3.42L9.21 3.42Q9.37 3.42 9.42 3.50Q9.48 3.58 9.48 3.65L9.48 3.65Q9.48 3.75 9.52 4.24Q9.56 4.73 9.56 4.79L9.56 4.79Q9.56 5.14 9.52 5.23Q9.48 5.32 9.34 5.32L9.34 5.32Q9.23 5.32 9.18 5.15L9.18 5.15Q9.07 4.75 8.99 4.60Q8.90 4.45 8.62 4.34Q8.34 4.23 7.77 4.23L7.77 4.23L5.95 4.23Q5.61 4.23 5.54 4.36Q5.46 4.49 5.46 5.12L5.46 5.12L5.46 5.81Q5.46 7.69 5.44 9.11Q5.42 10.54 5.42 10.93L5.42 10.93Q5.42 11.13 5.41 11.43Q5.40 11.73 5.40 11.84L5.40 11.84Q5.40 12.45 5.60 12.64L5.60 12.64Q5.78 12.81 6.01 12.90Q6.23 12.99 6.39 13.01Q6.55 13.02 6.66 13.08Q6.78 13.13 6.78 13.26L6.78 13.26Q6.78 13.41 6.71 13.45Q6.64 13.50 6.44 13.50L6.44 13.50Q6.27 13.50 5.70 13.44Q5.12 13.38 4.89 13.38L4.89 13.38Q4.72 13.38 4.21 13.43Q3.70 13.48 3.46 13.48L3.46 13.48Q2.94 13.48 2.94 13.26L2.94 13.26Q2.94 13.12 3.02 13.07Q3.11 13.02 3.35 12.98Q3.60 12.95 3.67 12.94L3.67 12.94Q4.14 12.82 4.20 12.38L4.20 12.38Q4.34 11.14 4.34 7.08L4.34 7.08L4.33 4.58Q4.33 4.31 4.17 4.25Q4.02 4.19 3.26 4.19L3.26 4.19Q2.28 4.19 1.79 4.24Q1.29 4.30 1.20 4.35Q1.12 4.40 1.01 4.54L1.01 4.54Q0.88 4.70 0.81 4.91Q0.73 5.11 0.71 5.24Q0.69 5.38 0.62 5.47Q0.56 5.56 0.43 5.56L0.43 5.56Q0.28 5.56 0.28 5.32ZM17.12 3.70L17.12 3.70Q17.12 3.50 17.51 3.50L17.51 3.50Q17.58 3.50 18.05 3.53Q18.52 3.56 19.05 3.56L19.05 3.56Q19.18 3.56 19.49 3.54Q19.81 3.53 19.96 3.53L19.96 3.53Q20.29 3.53 20.36 3.56Q20.43 3.58 20.43 3.68L20.43 3.68Q20.43 3.77 20.29 3.84Q20.15 3.91 20.00 4.02Q19.85 4.14 19.85 4.34L19.85 4.34Q19.85 4.52 19.90 4.71Q19.95 4.90 20.12 5.29Q20.29 5.68 20.46 6.08Q20.64 6.47 21.04 7.34Q21.43 8.22 21.81 9.07L21.81 9.07Q22.99 11.77 23.21 11.77L23.21 11.77Q23.28 11.77 24.02 10.08Q24.75 8.39 25.47 6.54Q26.18 4.69 26.18 4.35L26.18 4.35Q26.18 4.13 26.02 4.01Q25.86 3.89 25.68 3.87Q25.49 3.85 25.33 3.80Q25.17 3.75 25.17 3.64L25.17 3.64Q25.17 3.54 25.22 3.52Q25.27 3.50 25.47 3.50L25.47 3.50Q25.51 3.50 25.79 3.51Q26.07 3.51 26.35 3.51L26.35 3.51Q26.60 3.51 26.91 3.50Q27.23 3.49 27.59 3.49L27.59 3.49Q27.86 3.49 27.86 3.68L27.86 3.68Q27.86 3.78 27.77 3.85Q27.68 3.92 27.55 3.98Q27.43 4.03 27.26 4.21Q27.09 4.40 26.96 4.69L26.96 4.69L23.84 11.80Q23.51 12.56 23.18 13.34L23.18 13.34Q23.03 13.72 22.99 13.79Q22.95 13.86 22.88 13.86L22.88 13.86Q22.62 13.86 22.25 12.89L22.25 12.89Q21.88 11.98 20.80 9.65L20.80 9.65Q20.27 8.48 19.84 7.50Q19.40 6.52 19.21 6.06Q19.03 5.60 18.86 5.24Q18.70 4.87 18.62 4.72Q18.54 4.56 18.42 4.44L18.42 4.44Q18.19 4.17 17.93 4.06Q17.67 3.95 17.51 3.96Q17.35 3.96 17.23 3.91Q17.12 3.86 17.12 3.70ZM45.40 3.71L45.40 3.71Q45.40 3.50 45.65 3.50L45.65 3.50Q45.74 3.50 46.04 3.53Q46.34 3.56 46.40 3.56L46.40 3.56Q46.61 3.56 46.97 3.54Q47.33 3.53 47.45 3.53L47.45 3.53Q47.71 3.53 47.78 3.72L47.78 3.72Q47.95 4.09 48.38 5.03Q48.82 5.98 49.08 6.54Q49.34 7.10 49.74 7.97Q50.15 8.83 50.40 9.37Q50.65 9.91 50.92 10.46Q51.20 11.00 51.34 11.26Q51.49 11.52 51.53 11.52Q51.58 11.52 51.63 11.47Q51.67 11.42 51.72 11.34Q51.77 11.26 51.81 11.17Q51.84 11.09 51.91 10.96Q51.97 10.82 52.00 10.75L52.00 10.75L53.80 7.03Q54.11 6.40 54.35 5.89Q54.59 5.39 54.73 5.08Q54.87 4.77 54.96 4.55Q55.06 4.33 55.11 4.21Q55.16 4.10 55.18 4.04Q55.20 3.98 55.22 3.94Q55.23 3.91 55.24 3.88Q55.26 3.85 55.29 3.75Q55.33 3.65 55.36 3.62Q55.40 3.58 55.50 3.54Q55.61 3.50 55.78 3.50L55.78 3.50Q56.04 3.50 56.27 3.51Q56.50 3.53 56.98 3.53L56.98 3.53Q57.22 3.53 57.22 3.71L57.22 3.71Q57.22 3.85 57.13 3.91Q57.04 3.98 56.76 4.02L56.76 4.02Q56.41 4.06 56.27 4.37Q56.13 4.68 56.13 5.54L56.13 5.54Q56.13 7.43 56.21 8.97Q56.29 10.50 56.29 10.89L56.29 10.89Q56.29 12.29 56.52 12.68Q56.74 13.06 57.46 13.06L57.46 13.06Q57.55 13.06 57.63 13.13Q57.71 13.20 57.71 13.26L57.71 13.26Q57.71 13.34 57.69 13.38Q57.68 13.43 57.64 13.45Q57.60 13.48 57.55 13.48Q57.51 13.48 57.40 13.48L57.40 13.48Q56.98 13.48 56.57 13.45Q56.17 13.43 55.97 13.43L55.97 13.43Q55.58 13.43 55.16 13.46Q54.74 13.50 54.52 13.50L54.52 13.50Q54.26 13.50 54.26 13.30L54.26 13.30Q54.26 13.17 54.38 13.12Q54.49 13.06 54.63 13.05Q54.78 13.03 54.94 12.87Q55.10 12.71 55.17 12.39L55.17 12.39Q55.23 12.11 55.23 11.49L55.23 11.49Q55.23 11.05 55.21 10.42Q55.19 9.79 55.16 9.19Q55.13 8.60 55.10 8.07Q55.08 7.55 55.06 7.21L55.06 7.21L55.03 6.87Q55.03 6.27 54.91 6.27L54.91 6.27Q54.89 6.27 54.87 6.29Q54.84 6.30 54.82 6.33Q54.80 6.36 54.77 6.38Q54.74 6.41 54.71 6.47Q54.68 6.54 54.66 6.58Q54.63 6.62 54.59 6.70Q54.54 6.78 54.52 6.83Q54.49 6.89 54.44 6.99Q54.39 7.08 54.36 7.15L54.36 7.15L52.42 11.09Q52.08 11.77 51.70 12.56L51.70 12.56Q51.45 13.09 51.39 13.18Q51.34 13.27 51.25 13.27L51.25 13.27Q51.13 13.27 51.04 13.15Q50.96 13.03 50.79 12.63Q50.62 12.22 50.50 11.96L50.50 11.96Q47.94 6.75 47.87 6.65L47.87 6.65Q47.82 6.59 47.78 6.59L47.78 6.59Q47.67 6.59 47.67 7.15L47.67 7.15Q47.66 8.25 47.60 9.31Q47.54 10.37 47.54 10.85L47.54 10.85L47.54 11.48Q47.54 11.84 47.56 12.04Q47.59 12.24 47.68 12.49Q47.77 12.75 48.01 12.89Q48.24 13.03 48.62 13.08L48.62 13.08Q48.69 13.08 48.76 13.13Q48.82 13.17 48.82 13.23L48.82 13.23Q48.82 13.38 48.78 13.43Q48.73 13.48 48.61 13.48L48.61 13.48Q48.33 13.48 47.77 13.45Q47.21 13.43 47.15 13.43L47.15 13.43Q47.12 13.43 46.75 13.45Q46.37 13.47 46.00 13.47L46.00 13.47Q45.89 13.47 45.84 13.45Q45.79 13.44 45.75 13.39Q45.71 13.34 45.71 13.24L45.71 13.24Q45.71 13.13 45.84 13.09Q45.96 13.05 46.12 13.04Q46.28 13.03 46.48 12.82Q46.68 12.60 46.77 12.18L46.77 12.18Q46.84 11.87 46.94 9.74Q47.04 7.62 47.04 6.59L47.04 6.59Q47.04 5.19 46.77 4.66Q46.49 4.13 45.58 3.92L45.58 3.92Q45.40 3.88 45.40 3.71ZM65.27 13.33L65.27 13.33Q65.27 13.13 65.48 13.06L65.48 13.06Q65.93 12.89 66.26 12.31Q66.60 11.73 67.93 8.83L67.93 8.83Q69.30 5.87 70.35 3.63L70.35 3.63Q70.45 3.42 70.53 3.36Q70.60 3.30 70.77 3.30L70.77 3.30Q70.90 3.30 70.94 3.36Q70.98 3.42 71.12 3.82L71.12 3.82Q71.20 4.06 71.27 4.23Q71.33 4.40 71.47 4.77Q71.61 5.15 71.78 5.56L71.78 5.56Q72.23 6.66 73.33 9.22Q74.42 11.77 74.52 11.98L74.52 11.98Q74.76 12.46 75.05 12.71Q75.35 12.95 75.56 12.97Q75.78 12.99 75.93 13.04Q76.08 13.09 76.08 13.26L76.08 13.26Q76.08 13.47 75.70 13.47L75.70 13.47Q75.54 13.47 75.10 13.43Q74.65 13.38 74.44 13.38L74.44 13.38Q74.17 13.38 73.75 13.41Q73.33 13.44 73.14 13.44L73.14 13.44Q72.70 13.44 72.58 13.40Q72.46 13.37 72.46 13.24L72.46 13.24Q72.46 13.15 72.58 13.08Q72.69 13.02 72.81 13.00Q72.94 12.98 73.05 12.87Q73.16 12.77 73.16 12.59L73.16 12.59Q73.16 12.28 72.81 11.33Q72.46 10.37 72.23 9.93L72.23 9.93Q72.10 9.69 71.65 9.69L71.65 9.69Q71.58 9.69 71.04 9.70Q70.49 9.72 69.96 9.72L69.96 9.72L69.22 9.72Q68.59 9.72 68.42 9.79Q68.26 9.86 68.14 10.12L68.14 10.12Q68.05 10.30 67.86 10.70Q67.66 11.10 67.59 11.26Q67.52 11.41 67.42 11.65Q67.31 11.90 67.28 12.05Q67.24 12.19 67.24 12.31L67.24 12.31Q67.24 12.63 67.40 12.80Q67.56 12.96 67.76 12.98Q67.96 13.01 68.12 13.06Q68.28 13.12 68.28 13.26L68.28 13.26Q68.28 13.36 68.24 13.40Q68.19 13.45 68.04 13.45L68.04 13.45Q67.96 13.45 67.56 13.45Q67.16 13.44 66.88 13.44L66.88 13.44Q66.57 13.44 66.19 13.47Q65.80 13.50 65.67 13.50L65.67 13.50Q65.27 13.50 65.27 13.33ZM68.78 8.71L68.78 8.71Q68.78 8.89 68.91 8.93Q69.03 8.97 69.50 8.97L69.50 8.97L69.93 8.97L71.26 8.96Q71.81 8.96 71.81 8.74L71.81 8.74Q71.81 8.55 71.12 7.01Q70.43 5.46 70.25 5.46L70.25 5.46Q70.13 5.46 69.45 7.01Q68.78 8.55 68.78 8.71ZM83.64 3.64L83.64 3.64Q83.64 3.51 83.75 3.49Q83.87 3.47 84.35 3.47L84.35 3.47L85.57 3.47Q85.92 3.47 86.86 3.44Q87.79 3.42 88.30 3.42L88.30 3.42Q89.26 3.42 90.23 3.71Q91.20 4.00 92.01 4.56Q92.82 5.11 93.32 6.00Q93.83 6.89 93.83 7.98L93.83 7.98Q93.83 8.96 93.69 9.68Q93.56 10.40 93.25 10.93Q92.95 11.45 92.64 11.78Q92.33 12.11 91.80 12.56L91.80 12.56Q91.38 12.89 90.58 13.19Q89.78 13.48 88.94 13.48L88.94 13.48Q88.86 13.48 87.51 13.45Q86.17 13.41 85.58 13.41L85.58 13.41Q85.09 13.41 84.67 13.45Q84.25 13.48 84.18 13.48L84.18 13.48Q83.85 13.48 83.85 13.30L83.85 13.30Q83.85 13.19 83.89 13.14Q83.94 13.09 84.10 13.05Q84.27 13.01 84.34 12.98L84.34 12.98Q84.56 12.88 84.75 12.61Q84.94 12.33 84.94 12.07L84.94 12.07Q84.94 11.28 84.94 10.07Q84.95 8.85 84.95 8.27L84.95 8.27Q84.95 7.77 84.94 6.70Q84.94 5.63 84.94 4.72L84.94 4.72Q84.94 4.48 84.71 4.23Q84.48 3.99 84.20 3.98L84.20 3.98Q84 3.96 83.91 3.95Q83.82 3.93 83.73 3.86Q83.64 3.78 83.64 3.64ZM86.11 11.47L86.11 11.47Q86.11 11.73 86.12 11.90Q86.13 12.07 86.18 12.21Q86.23 12.35 86.25 12.40Q86.28 12.46 86.42 12.53Q86.56 12.60 86.64 12.62Q86.72 12.64 86.97 12.71Q87.22 12.78 87.39 12.82L87.39 12.82Q87.88 12.96 88.41 12.96L88.41 12.96L88.69 12.96Q89.64 12.96 90.31 12.69Q90.99 12.42 91.60 11.83L91.60 11.83Q92.64 10.84 92.64 8.61L92.64 8.61Q92.64 7.49 92.20 6.58Q91.76 5.67 91.04 5.13Q90.33 4.59 89.50 4.30Q88.68 4.02 87.84 4.02L87.84 4.02Q87.46 4.02 87.28 4.02Q87.11 4.02 86.88 4.05Q86.65 4.09 86.57 4.11Q86.49 4.13 86.38 4.25Q86.27 4.37 86.25 4.45Q86.23 4.54 86.19 4.78Q86.16 5.03 86.16 5.21Q86.16 5.39 86.16 5.80L86.16 5.80Q86.16 6.10 86.14 7.24Q86.13 8.39 86.13 8.48L86.13 8.48Q86.13 9.32 86.12 10.30Q86.11 11.28 86.11 11.47ZM101.72 3.65L101.72 3.65Q101.72 3.46 102.12 3.46L102.12 3.46Q102.17 3.46 102.30 3.47Q102.42 3.49 102.49 3.49L102.49 3.49Q102.54 3.49 103.81 3.52Q105.08 3.56 105.91 3.56L105.91 3.56Q106.20 3.56 107.36 3.53Q108.51 3.50 108.71 3.50L108.71 3.50Q108.98 3.50 108.98 3.82L108.98 3.82Q108.98 3.91 108.89 4.38Q108.81 4.84 108.81 5.25L108.81 5.25Q108.81 5.38 108.74 5.47Q108.67 5.56 108.58 5.56L108.58 5.56Q108.37 5.56 108.37 5.26L108.37 5.26Q108.37 4.89 108.14 4.58Q107.90 4.27 107.55 4.26L107.55 4.26Q106.29 4.16 105.62 4.16L105.62 4.16L105.25 4.16Q104.52 4.16 104.40 4.26Q104.29 4.37 104.26 5.01L104.26 5.01Q104.20 6.02 104.20 7.35L104.20 7.35Q104.20 8.05 104.47 8.06L104.47 8.06L104.82 8.06L105.41 8.06L105.84 8.06Q106.68 8.06 106.96 8.01Q107.24 7.95 107.46 7.80L107.46 7.80Q107.73 7.62 107.79 7.28L107.79 7.28Q107.83 7.04 107.98 7.04L107.98 7.04Q108.11 7.04 108.14 7.08Q108.16 7.13 108.16 7.27L108.16 7.27Q108.16 7.36 108.11 7.91Q108.05 8.46 108.05 8.74L108.05 8.74Q108.05 9.00 108.07 9.24Q108.09 9.48 108.09 9.59L108.09 9.59Q108.09 9.94 108.00 9.94L108.00 9.94Q107.79 9.94 107.69 9.60L107.69 9.60Q107.49 9.02 107.34 8.92L107.34 8.92Q107.04 8.72 105.99 8.72L105.99 8.72Q105.57 8.72 105.31 8.72Q105.06 8.72 104.98 8.71Q104.90 8.71 104.85 8.71Q104.80 8.71 104.76 8.71L104.76 8.71Q104.19 8.71 104.19 8.97L104.19 8.97Q104.19 9.38 104.17 9.99Q104.16 10.60 104.16 10.99L104.16 10.99L104.16 11.55Q104.16 12.56 104.50 12.66L104.50 12.66Q104.85 12.77 105.10 12.77L105.10 12.77Q106.15 12.77 106.94 12.67Q107.73 12.57 108.13 12.42Q108.53 12.28 108.79 12.10Q109.06 11.93 109.14 11.78Q109.21 11.63 109.29 11.54Q109.37 11.44 109.45 11.44L109.45 11.44Q109.62 11.44 109.62 11.68L109.62 11.68Q109.62 12.28 109.02 12.89Q108.42 13.51 107.97 13.51L107.97 13.51Q106.96 13.51 105.69 13.44Q104.43 13.37 104.12 13.37L104.12 13.37Q103.73 13.37 103.14 13.43Q102.55 13.50 102.21 13.50L102.21 13.50Q101.92 13.50 101.92 13.36L101.92 13.36Q101.92 13.23 101.92 13.19Q101.92 13.15 101.96 13.12Q102.00 13.09 102.05 13.08Q102.10 13.08 102.23 13.03Q102.37 12.99 102.52 12.92L102.52 12.92Q102.86 12.75 102.96 12.26Q103.07 11.77 103.07 10.21L103.07 10.21L103.07 8.47Q103.07 8.09 103.09 7.29Q103.11 6.50 103.11 6.05L103.11 6.05Q103.11 5.67 103.08 4.77L103.08 4.77Q103.07 4.37 102.73 4.14Q102.40 3.92 101.95 3.91L101.95 3.91Q101.72 3.91 101.72 3.65ZM127.71 10.82L127.71 10.82Q127.71 10.53 127.90 10.53L127.90 10.53Q128.09 10.53 128.13 10.67L128.13 10.67Q128.27 11.00 128.39 11.25Q128.51 11.49 128.77 11.85Q129.04 12.21 129.35 12.44Q129.65 12.67 130.14 12.84Q130.62 13.01 131.19 13.01L131.19 13.01Q132.24 13.01 132.88 12.45Q133.52 11.90 133.52 11.00L133.52 11.00Q133.52 10.35 133.08 9.90Q132.65 9.46 132.09 9.27Q131.53 9.09 130.67 8.77Q129.81 8.46 129.26 8.13L129.26 8.13Q127.99 7.38 127.99 6.08L127.99 6.08Q127.99 4.83 128.89 4.08Q129.79 3.33 131.24 3.33L131.24 3.33Q131.77 3.33 132.50 3.56Q133.24 3.79 133.25 3.79L133.25 3.79Q133.29 3.79 133.41 3.74Q133.52 3.68 133.57 3.68L133.57 3.68Q133.76 3.68 133.78 3.79L133.78 3.79Q134.08 5.49 134.08 5.70L134.08 5.70Q134.08 6.09 133.88 6.09L133.88 6.09Q133.76 6.09 133.69 5.89L133.69 5.89Q133.52 5.49 133.36 5.24Q133.20 4.98 133.13 4.91Q133.06 4.84 132.76 4.58L132.76 4.58Q132.01 3.91 130.93 3.91L130.93 3.91Q130.06 3.91 129.47 4.33Q128.88 4.75 128.88 5.46L128.88 5.46Q128.88 6.09 129.23 6.50Q129.57 6.90 130.14 7.13Q130.72 7.35 131.35 7.55Q131.98 7.74 132.69 8.09Q133.39 8.44 133.85 8.93L133.85 8.93Q134.41 9.53 134.41 10.43L134.41 10.43Q134.41 11.90 133.48 12.76Q132.54 13.62 131.15 13.62L131.15 13.62Q130.19 13.62 129.60 13.52Q129.01 13.41 128.39 13.09L128.39 13.09Q128.21 12.98 127.96 12.00Q127.71 11.02 127.71 10.82ZM142.51 3.71L142.51 3.71Q142.51 3.50 142.90 3.50L142.90 3.50Q143.04 3.50 143.54 3.53Q144.05 3.56 144.48 3.56L144.48 3.56Q144.75 3.56 144.99 3.54Q145.24 3.53 145.71 3.53L145.71 3.53Q146.09 3.53 146.09 3.72L146.09 3.72Q146.09 3.84 145.45 4.10L145.45 4.10Q145.00 4.28 145.00 5.71L145.00 5.71Q145.00 7.60 144.98 9.05Q144.96 10.50 144.96 10.89L144.96 10.89Q144.96 12.07 145.31 12.59L145.31 12.59Q145.61 13.02 145.98 13.02L145.98 13.02Q146.01 13.02 146.12 13.03Q146.23 13.03 146.26 13.03L146.26 13.03Q146.36 13.03 146.45 13.08Q146.55 13.13 146.55 13.19L146.55 13.19Q146.55 13.34 146.47 13.39Q146.40 13.44 146.20 13.44L146.20 13.44Q145.78 13.44 145.43 13.41Q145.07 13.38 144.87 13.38L144.87 13.38Q144.48 13.38 144.02 13.42Q143.56 13.45 143.33 13.45L143.33 13.45Q142.70 13.45 142.70 13.24L142.70 13.24Q142.70 13.12 142.84 13.07Q142.97 13.02 143.14 13.00Q143.30 12.98 143.49 12.82Q143.67 12.66 143.74 12.35L143.74 12.35Q143.77 12.25 143.83 10.76Q143.89 9.27 143.89 8.61L143.89 8.61L143.89 7.81Q143.89 7.63 143.90 7.12Q143.91 6.61 143.91 6.30L143.91 6.30L143.91 5.66Q143.91 5.04 143.85 4.63L143.85 4.63Q143.81 4.30 143.48 4.12Q143.15 3.93 142.80 3.92L142.80 3.92Q142.51 3.91 142.51 3.71ZM154.10 3.71L154.10 3.71Q154.10 3.50 154.35 3.50L154.35 3.50Q154.43 3.50 154.74 3.53Q155.04 3.56 155.09 3.56L155.09 3.56Q155.30 3.56 155.67 3.54Q156.03 3.53 156.14 3.53L156.14 3.53Q156.41 3.53 156.48 3.72L156.48 3.72Q156.65 4.09 157.08 5.03Q157.51 5.98 157.77 6.54Q158.03 7.10 158.44 7.97Q158.84 8.83 159.10 9.37Q159.35 9.91 159.62 10.46Q159.89 11.00 160.04 11.26Q160.19 11.52 160.23 11.52Q160.27 11.52 160.32 11.47Q160.37 11.42 160.42 11.34Q160.47 11.26 160.50 11.17Q160.54 11.09 160.60 10.96Q160.66 10.82 160.69 10.75L160.69 10.75L162.50 7.03Q162.81 6.40 163.04 5.89Q163.28 5.39 163.42 5.08Q163.56 4.77 163.66 4.55Q163.76 4.33 163.81 4.21Q163.86 4.10 163.88 4.04Q163.90 3.98 163.91 3.94Q163.93 3.91 163.94 3.88Q163.95 3.85 163.99 3.75Q164.02 3.65 164.06 3.62Q164.09 3.58 164.20 3.54Q164.30 3.50 164.47 3.50L164.47 3.50Q164.74 3.50 164.97 3.51Q165.20 3.53 165.68 3.53L165.68 3.53Q165.91 3.53 165.91 3.71L165.91 3.71Q165.91 3.85 165.82 3.91Q165.73 3.98 165.45 4.02L165.45 4.02Q165.10 4.06 164.96 4.37Q164.82 4.68 164.82 5.54L164.82 5.54Q164.82 7.43 164.91 8.97Q164.99 10.50 164.99 10.89L164.99 10.89Q164.99 12.29 165.21 12.68Q165.44 13.06 166.15 13.06L166.15 13.06Q166.25 13.06 166.33 13.13Q166.40 13.20 166.40 13.26L166.40 13.26Q166.40 13.34 166.39 13.38Q166.38 13.43 166.33 13.45Q166.29 13.48 166.25 13.48Q166.21 13.48 166.10 13.48L166.10 13.48Q165.68 13.48 165.27 13.45Q164.86 13.43 164.67 13.43L164.67 13.43Q164.28 13.43 163.86 13.46Q163.44 13.50 163.21 13.50L163.21 13.50Q162.96 13.50 162.96 13.30L162.96 13.30Q162.96 13.17 163.07 13.12Q163.18 13.06 163.33 13.05Q163.48 13.03 163.64 12.87Q163.80 12.71 163.87 12.39L163.87 12.39Q163.93 12.11 163.93 11.49L163.93 11.49Q163.93 11.05 163.91 10.42Q163.88 9.79 163.86 9.19Q163.83 8.60 163.80 8.07Q163.77 7.55 163.76 7.21L163.76 7.21L163.73 6.87Q163.73 6.27 163.60 6.27L163.60 6.27Q163.59 6.27 163.56 6.29Q163.53 6.30 163.51 6.33Q163.49 6.36 163.46 6.38Q163.44 6.41 163.41 6.47Q163.38 6.54 163.35 6.58Q163.32 6.62 163.28 6.70Q163.24 6.78 163.21 6.83Q163.18 6.89 163.14 6.99Q163.09 7.08 163.06 7.15L163.06 7.15L161.11 11.09Q160.78 11.77 160.40 12.56L160.40 12.56Q160.15 13.09 160.09 13.18Q160.03 13.27 159.95 13.27L159.95 13.27Q159.82 13.27 159.74 13.15Q159.66 13.03 159.49 12.63Q159.32 12.22 159.19 11.96L159.19 11.96Q156.63 6.75 156.56 6.65L156.56 6.65Q156.52 6.59 156.48 6.59L156.48 6.59Q156.37 6.59 156.37 7.15L156.37 7.15Q156.35 8.25 156.30 9.31Q156.24 10.37 156.24 10.85L156.24 10.85L156.24 11.48Q156.24 11.84 156.26 12.04Q156.28 12.24 156.37 12.49Q156.46 12.75 156.70 12.89Q156.94 13.03 157.32 13.08L157.32 13.08Q157.39 13.08 157.45 13.13Q157.51 13.17 157.51 13.23L157.51 13.23Q157.51 13.38 157.47 13.43Q157.43 13.48 157.30 13.48L157.30 13.48Q157.02 13.48 156.46 13.45Q155.90 13.43 155.85 13.43L155.85 13.43Q155.82 13.43 155.44 13.45Q155.06 13.47 154.70 13.47L154.70 13.47Q154.59 13.47 154.54 13.45Q154.49 13.44 154.45 13.39Q154.41 13.34 154.41 13.24L154.41 13.24Q154.41 13.13 154.53 13.09Q154.66 13.05 154.82 13.04Q154.98 13.03 155.18 12.82Q155.37 12.60 155.47 12.18L155.47 12.18Q155.54 11.87 155.64 9.74Q155.74 7.62 155.74 6.59L155.74 6.59Q155.74 5.19 155.46 4.66Q155.19 4.13 154.28 3.92L154.28 3.92Q154.10 3.88 154.10 3.71ZM173.96 3.72L173.96 3.72Q173.96 3.50 174.29 3.50L174.29 3.50Q174.33 3.50 174.44 3.49Q174.55 3.49 174.80 3.49L174.80 3.49Q174.87 3.49 175.19 3.51Q175.50 3.53 175.64 3.53L175.64 3.53Q175.95 3.53 176.83 3.51Q177.72 3.49 177.95 3.49L177.95 3.49Q179.27 3.49 180.22 4.15Q181.17 4.82 181.17 6.06L181.17 6.06Q181.17 6.75 180.92 7.29Q180.67 7.83 180.31 8.13Q179.96 8.44 179.52 8.64Q179.07 8.85 178.73 8.91Q178.39 8.97 178.12 8.97L178.12 8.97Q177.67 8.97 177.21 8.87Q176.75 8.76 176.75 8.65L176.75 8.65Q176.75 8.44 176.93 8.44L176.93 8.44Q177.00 8.44 177.22 8.50Q177.44 8.55 177.65 8.55L177.65 8.55Q177.97 8.55 178.33 8.46Q178.70 8.37 179.09 8.17Q179.48 7.97 179.73 7.55Q179.98 7.14 179.98 6.59L179.98 6.59Q179.98 5.66 179.23 4.85Q178.47 4.05 177.14 4.05L177.14 4.05Q176.71 4.05 176.55 4.30Q176.40 4.56 176.40 5.47L176.40 5.47Q176.40 8.39 176.39 8.80Q176.37 9.21 176.37 11.26L176.37 11.26Q176.37 12.49 176.95 12.87L176.95 12.87Q177.10 12.96 177.33 12.99Q177.56 13.02 177.72 13.01Q177.87 13.01 177.99 13.07Q178.11 13.13 178.11 13.30L178.11 13.30Q178.11 13.54 177.79 13.54Q177.46 13.54 176.65 13.50Q175.84 13.47 175.78 13.47L175.78 13.47Q175.64 13.47 175.23 13.50Q174.82 13.52 174.48 13.52L174.48 13.52Q174.05 13.52 174.05 13.37L174.05 13.37Q174.05 13.29 174.07 13.23Q174.09 13.17 174.11 13.14Q174.13 13.10 174.20 13.08Q174.27 13.05 174.30 13.03Q174.33 13.02 174.43 13.00Q174.54 12.98 174.58 12.96L174.58 12.96Q174.61 12.95 174.66 12.94Q174.72 12.94 174.74 12.93Q174.76 12.92 174.81 12.89Q174.86 12.85 174.89 12.79Q174.92 12.73 174.97 12.62Q175.01 12.52 175.07 12.35L175.07 12.35Q175.17 12.08 175.22 10.25Q175.28 8.41 175.28 7.41L175.28 7.41Q175.28 6.54 175.27 5.80Q175.27 5.07 175.27 5.03L175.27 5.03Q175.27 4.65 175.03 4.28Q174.79 3.91 174.24 3.91L174.24 3.91Q173.96 3.91 173.96 3.72ZM188.86 3.71L188.86 3.71Q188.86 3.46 189.24 3.46L189.24 3.46Q189.29 3.46 189.42 3.47Q189.55 3.49 189.62 3.49L189.62 3.49Q189.76 3.49 190.14 3.51Q190.53 3.54 190.83 3.54L190.83 3.54Q191.27 3.54 191.76 3.51Q192.25 3.49 192.30 3.49L192.30 3.49Q192.54 3.49 192.54 3.63L192.54 3.63Q192.54 3.82 192.37 3.88Q192.21 3.95 192.00 3.97Q191.80 3.99 191.61 4.28Q191.42 4.56 191.39 5.14L191.39 5.14Q191.37 5.68 191.32 8.19Q191.28 10.70 191.28 10.99L191.28 10.99L191.28 11.55Q191.28 12.56 191.62 12.66L191.62 12.66Q191.97 12.77 192.22 12.77L192.22 12.77Q193.27 12.77 194.06 12.67Q194.85 12.57 195.25 12.42Q195.65 12.28 195.92 12.10Q196.18 11.93 196.26 11.78Q196.34 11.63 196.41 11.54Q196.49 11.44 196.57 11.44L196.57 11.44Q196.74 11.44 196.74 11.68L196.74 11.68Q196.74 12.28 196.14 12.89Q195.54 13.51 195.09 13.51L195.09 13.51Q194.08 13.51 192.82 13.44Q191.55 13.37 191.24 13.37L191.24 13.37Q190.85 13.37 190.34 13.43Q189.83 13.48 189.49 13.48L189.49 13.48Q189.08 13.48 189.08 13.31L189.08 13.31Q189.08 13.22 189.16 13.15Q189.24 13.09 189.31 13.09L189.31 13.09Q189.52 13.09 189.71 12.95L189.71 12.95Q189.97 12.75 190.08 12.23Q190.19 11.70 190.19 10.21L190.19 10.21L190.19 8.47Q190.19 8.09 190.21 7.29Q190.23 6.50 190.23 6.05L190.23 6.05Q190.23 5.67 190.20 4.77L190.20 4.77Q190.19 4.37 189.85 4.14Q189.52 3.92 189.07 3.91L189.07 3.91Q188.93 3.91 188.90 3.86Q188.86 3.81 188.86 3.71ZM204.30 3.65L204.30 3.65Q204.30 3.46 204.69 3.46L204.69 3.46Q204.75 3.46 204.88 3.47Q205.00 3.49 205.07 3.49L205.07 3.49Q205.11 3.49 206.39 3.52Q207.66 3.56 208.49 3.56L208.49 3.56Q208.78 3.56 209.94 3.53Q211.09 3.50 211.29 3.50L211.29 3.50Q211.55 3.50 211.55 3.82L211.55 3.82Q211.55 3.91 211.47 4.38Q211.39 4.84 211.39 5.25L211.39 5.25Q211.39 5.38 211.32 5.47Q211.25 5.56 211.16 5.56L211.16 5.56Q210.95 5.56 210.95 5.26L210.95 5.26Q210.95 4.89 210.71 4.58Q210.48 4.27 210.13 4.26L210.13 4.26Q208.87 4.16 208.19 4.16L208.19 4.16L207.83 4.16Q207.10 4.16 206.98 4.26Q206.86 4.37 206.84 5.01L206.84 5.01Q206.78 6.02 206.78 7.35L206.78 7.35Q206.78 8.05 207.05 8.06L207.05 8.06L207.40 8.06L207.98 8.06L208.42 8.06Q209.26 8.06 209.54 8.01Q209.82 7.95 210.04 7.80L210.04 7.80Q210.31 7.62 210.36 7.28L210.36 7.28Q210.41 7.04 210.56 7.04L210.56 7.04Q210.69 7.04 210.71 7.08Q210.74 7.13 210.74 7.27L210.74 7.27Q210.74 7.36 210.69 7.91Q210.63 8.46 210.63 8.74L210.63 8.74Q210.63 9.00 210.65 9.24Q210.67 9.48 210.67 9.59L210.67 9.59Q210.67 9.94 210.57 9.94L210.57 9.94Q210.36 9.94 210.27 9.60L210.27 9.60Q210.07 9.02 209.92 8.92L209.92 8.92Q209.62 8.72 208.57 8.72L208.57 8.72Q208.15 8.72 207.89 8.72Q207.63 8.72 207.56 8.71Q207.48 8.71 207.43 8.71Q207.38 8.71 207.34 8.71L207.34 8.71Q206.77 8.71 206.77 8.97L206.77 8.97Q206.77 9.38 206.75 9.99Q206.74 10.60 206.74 10.99L206.74 10.99L206.74 11.55Q206.74 12.56 207.07 12.66L207.07 12.66Q207.42 12.77 207.68 12.77L207.68 12.77Q208.73 12.77 209.52 12.67Q210.31 12.57 210.71 12.42Q211.11 12.28 211.37 12.10Q211.64 11.93 211.72 11.78Q211.79 11.63 211.87 11.54Q211.95 11.44 212.03 11.44L212.03 11.44Q212.20 11.44 212.20 11.68L212.20 11.68Q212.20 12.28 211.60 12.89Q210.99 13.51 210.55 13.51L210.55 13.51Q209.54 13.51 208.27 13.44Q207.00 13.37 206.70 13.37L206.70 13.37Q206.30 13.37 205.72 13.43Q205.13 13.50 204.79 13.50L204.79 13.50Q204.50 13.50 204.50 13.36L204.50 13.36Q204.50 13.23 204.50 13.19Q204.50 13.15 204.54 13.12Q204.58 13.09 204.63 13.08Q204.68 13.08 204.81 13.03Q204.95 12.99 205.10 12.92L205.10 12.92Q205.44 12.75 205.54 12.26Q205.65 11.77 205.65 10.21L205.65 10.21L205.65 8.47Q205.65 8.09 205.67 7.29Q205.69 6.50 205.69 6.05L205.69 6.05Q205.69 5.67 205.66 4.77L205.66 4.77Q205.65 4.37 205.31 4.14Q204.97 3.92 204.53 3.91L204.53 3.91Q204.30 3.91 204.30 3.65ZM229.46 10.44L229.46 10.44Q229.46 10.22 229.56 10.16Q229.66 10.11 229.94 10.11L229.94 10.11L243.17 10.11Q243.33 10.11 243.40 10.18Q243.46 10.25 243.46 10.53L243.46 10.53Q243.46 10.85 243.17 10.85L243.17 10.85L229.99 10.85Q229.60 10.85 229.53 10.79Q229.46 10.74 229.46 10.44ZM260.72 3.68L260.72 3.68Q260.72 3.64 260.74 3.60Q260.76 3.56 260.86 3.50Q260.95 3.44 261.09 3.44L261.09 3.44L261.46 3.44Q261.80 3.44 262.55 3.49Q263.30 3.53 264.50 3.53L264.50 3.53Q265.50 3.53 266.27 3.49Q267.04 3.46 267.68 3.46L267.68 3.46Q267.92 3.46 267.92 3.79L267.92 3.79Q267.92 3.92 267.89 4.11Q267.86 4.30 267.81 4.61Q267.75 4.93 267.72 5.22L267.72 5.22Q267.69 5.50 267.51 5.50L267.51 5.50Q267.32 5.50 267.32 5.22L267.32 5.22Q267.32 4.30 266.67 4.26L266.67 4.26Q264.56 4.09 264.15 4.09L264.15 4.09Q263.52 4.09 263.38 4.24Q263.23 4.40 263.21 4.87L263.21 4.87Q263.21 4.94 263.21 4.98L263.21 4.98Q263.17 5.74 263.17 7.32L263.17 7.32Q263.17 8.01 263.42 8.02L263.42 8.02Q263.49 8.02 263.61 8.03Q263.73 8.04 263.77 8.04L263.77 8.04Q263.87 8.04 264.07 8.03Q264.26 8.02 264.38 8.02L264.38 8.02L264.81 8.02Q265.65 8.02 265.92 7.97Q266.20 7.92 266.42 7.77L266.42 7.77Q266.55 7.69 266.62 7.57Q266.69 7.46 266.71 7.31Q266.74 7.15 266.78 7.08Q266.83 7.01 266.95 7.01Q267.08 7.01 267.11 7.06Q267.13 7.10 267.13 7.24L267.13 7.24Q267.13 7.34 267.07 7.73Q267.01 8.12 267.01 8.40L267.01 8.40Q267.01 8.67 267.06 9.05Q267.11 9.44 267.11 9.55L267.11 9.55Q267.11 9.77 267.06 9.83Q267.01 9.90 266.91 9.90L266.91 9.90Q266.67 9.90 266.62 9.55L266.62 9.55Q266.62 9.52 266.60 9.42Q266.59 9.32 266.58 9.28Q266.57 9.24 266.55 9.16Q266.52 9.09 266.49 9.04Q266.46 9.00 266.42 8.95Q266.38 8.90 266.31 8.88L266.31 8.88Q266.11 8.79 265.61 8.74Q265.10 8.68 264.95 8.68L264.95 8.68L263.73 8.68Q263.16 8.68 263.16 8.95L263.16 8.95Q263.16 9.35 263.14 9.96Q263.13 10.57 263.13 10.96L263.13 10.96Q263.13 11.06 263.12 11.25Q263.12 11.44 263.12 11.52L263.12 11.52Q263.12 11.80 263.17 12.08Q263.23 12.36 263.50 12.67Q263.77 12.98 264.24 12.98L264.24 12.98Q264.66 12.98 264.66 13.23L264.66 13.23Q264.66 13.27 264.63 13.33Q264.60 13.38 264.50 13.44Q264.39 13.50 264.22 13.50L264.22 13.50Q264.00 13.50 263.51 13.44Q263.03 13.38 262.86 13.38L262.86 13.38Q262.47 13.38 261.99 13.43Q261.51 13.47 261.17 13.47L261.17 13.47Q260.89 13.47 260.89 13.31L260.89 13.31Q260.89 13.13 260.95 13.09Q261.02 13.05 261.49 12.88L261.49 12.88Q261.86 12.75 261.94 12.13Q262.02 11.51 262.04 9.60L262.04 9.60Q262.04 8.86 262.04 8.44L262.04 8.44Q262.04 8.06 262.06 7.26Q262.08 6.45 262.08 6.01L262.08 6.01L262.08 5.19Q262.08 4.27 261.42 3.96L261.42 3.96Q261.32 3.92 261.18 3.90Q261.04 3.88 260.95 3.88Q260.86 3.88 260.79 3.83Q260.72 3.78 260.72 3.68ZM275.81 8.69L275.81 8.69Q275.81 6.34 277.23 4.84Q278.64 3.33 281.23 3.33L281.23 3.33Q282.44 3.33 283.40 3.68Q284.37 4.03 284.93 4.54Q285.49 5.05 285.87 5.71Q286.24 6.37 286.38 6.92Q286.52 7.48 286.52 7.95L286.52 7.95Q286.52 9.86 285.78 11.16Q285.04 12.47 283.83 13.07Q282.62 13.66 281.04 13.66L281.04 13.66Q279.37 13.66 278.16 12.94Q276.95 12.21 276.38 11.10Q275.81 10.00 275.81 8.69ZM277.05 7.98L277.05 7.98Q277.05 8.54 277.20 9.19Q277.35 9.84 277.70 10.54Q278.05 11.23 278.55 11.78Q279.05 12.33 279.81 12.69Q280.57 13.05 281.48 13.05L281.48 13.05Q281.96 13.05 282.48 12.90Q283.01 12.75 283.53 12.45Q284.05 12.14 284.45 11.70Q284.86 11.26 285.12 10.62Q285.38 9.98 285.38 9.24L285.38 9.24Q285.38 6.71 284.05 5.30Q282.72 3.89 280.76 3.89L280.76 3.89Q279.22 3.89 278.13 4.93Q277.05 5.96 277.05 7.98ZM294.42 3.70L294.42 3.70Q294.42 3.47 294.83 3.47L294.83 3.47L297.15 3.47Q297.47 3.47 297.89 3.45Q298.31 3.43 298.55 3.43L298.55 3.43Q299.81 3.43 300.71 4.07Q301.60 4.70 301.60 5.78L301.60 5.78Q301.60 6.50 301.33 7.03Q301.06 7.57 300.73 7.81Q300.40 8.05 300.13 8.22Q299.85 8.40 299.85 8.46L299.85 8.46Q299.85 8.62 301.03 10.27Q302.20 11.91 302.64 12.38L302.64 12.38Q303.17 13.03 303.93 13.03L303.93 13.03Q304.12 13.03 304.12 13.20L304.12 13.20Q304.12 13.41 303.95 13.48Q303.79 13.55 303.09 13.55L303.09 13.55Q302.43 13.55 301.88 13.23L301.88 13.23Q301.18 12.82 299.52 10.09L299.52 10.09Q299.42 9.94 299.38 9.87L299.38 9.87Q298.70 8.78 298.34 8.78L298.34 8.78L298.05 8.78L297.19 8.78Q297.02 8.78 296.99 8.92Q296.95 9.06 296.95 9.77L296.95 9.77Q296.95 10.44 296.95 10.88Q296.95 11.31 296.96 11.43Q296.97 11.55 296.97 11.63Q296.97 11.70 296.97 11.75L296.97 11.75Q296.97 12.32 297.23 12.63Q297.50 12.95 297.83 13.00Q298.16 13.05 298.42 13.11Q298.69 13.17 298.69 13.31L298.69 13.31Q298.69 13.54 298.44 13.54L298.44 13.54Q298.42 13.54 297.47 13.49Q296.52 13.44 296.44 13.44L296.44 13.44Q296.03 13.44 295.47 13.47Q294.91 13.50 294.90 13.50L294.90 13.50Q294.60 13.50 294.60 13.27L294.60 13.27Q294.60 13.12 294.78 13.05Q294.97 12.99 295.19 12.96Q295.41 12.94 295.60 12.66Q295.78 12.38 295.78 11.86L295.78 11.86Q295.78 11.49 295.78 9.90Q295.79 8.30 295.79 7.45L295.79 7.45Q295.79 6.58 295.78 5.86Q295.78 5.14 295.78 5.08L295.78 5.08Q295.78 4.56 295.57 4.29Q295.36 4.02 295.10 3.98Q294.84 3.95 294.63 3.89Q294.42 3.84 294.42 3.70ZM296.95 5.54L296.95 5.94Q296.95 7.38 296.97 7.72Q296.98 8.06 297.07 8.12L297.07 8.12Q297.28 8.25 297.67 8.25L297.67 8.25L297.81 8.25L298.21 8.25Q299.40 8.25 299.91 7.70Q300.43 7.15 300.43 6.30L300.43 6.30Q300.43 5.43 299.75 4.72Q299.07 4.00 297.70 4.00L297.70 4.00Q297.18 4.00 297.07 4.28Q296.95 4.55 296.95 5.54L296.95 5.54ZM321.45 3.65L321.45 3.65Q321.45 3.46 321.85 3.46L321.85 3.46Q321.90 3.46 322.03 3.47Q322.15 3.49 322.22 3.49L322.22 3.49Q322.27 3.49 323.54 3.52Q324.81 3.56 325.64 3.56L325.64 3.56Q325.93 3.56 327.09 3.53Q328.24 3.50 328.44 3.50L328.44 3.50Q328.71 3.50 328.71 3.82L328.71 3.82Q328.71 3.91 328.62 4.38Q328.54 4.84 328.54 5.25L328.54 5.25Q328.54 5.38 328.47 5.47Q328.40 5.56 328.31 5.56L328.31 5.56Q328.10 5.56 328.10 5.26L328.10 5.26Q328.10 4.89 327.87 4.58Q327.63 4.27 327.28 4.26L327.28 4.26Q326.02 4.16 325.35 4.16L325.35 4.16L324.98 4.16Q324.25 4.16 324.14 4.26Q324.02 4.37 323.99 5.01L323.99 5.01Q323.93 6.02 323.93 7.35L323.93 7.35Q323.93 8.05 324.20 8.06L324.20 8.06L324.55 8.06L325.14 8.06L325.57 8.06Q326.41 8.06 326.69 8.01Q326.97 7.95 327.19 7.80L327.19 7.80Q327.46 7.62 327.52 7.28L327.52 7.28Q327.56 7.04 327.71 7.04L327.71 7.04Q327.84 7.04 327.87 7.08Q327.89 7.13 327.89 7.27L327.89 7.27Q327.89 7.36 327.84 7.91Q327.78 8.46 327.78 8.74L327.78 8.74Q327.78 9.00 327.80 9.24Q327.82 9.48 327.82 9.59L327.82 9.59Q327.82 9.94 327.73 9.94L327.73 9.94Q327.52 9.94 327.42 9.60L327.42 9.60Q327.22 9.02 327.07 8.92L327.07 8.92Q326.77 8.72 325.72 8.72L325.72 8.72Q325.30 8.72 325.05 8.72Q324.79 8.72 324.71 8.71Q324.63 8.71 324.58 8.71Q324.53 8.71 324.49 8.71L324.49 8.71Q323.92 8.71 323.92 8.97L323.92 8.97Q323.92 9.38 323.90 9.99Q323.89 10.60 323.89 10.99L323.89 10.99L323.89 11.55Q323.89 12.56 324.23 12.66L324.23 12.66Q324.58 12.77 324.83 12.77L324.83 12.77Q325.88 12.77 326.67 12.67Q327.46 12.57 327.86 12.42Q328.26 12.28 328.52 12.10Q328.79 11.93 328.87 11.78Q328.94 11.63 329.02 11.54Q329.10 11.44 329.18 11.44L329.18 11.44Q329.35 11.44 329.35 11.68L329.35 11.68Q329.35 12.28 328.75 12.89Q328.15 13.51 327.70 13.51L327.70 13.51Q326.69 13.51 325.42 13.44Q324.16 13.37 323.85 13.37L323.85 13.37Q323.46 13.37 322.87 13.43Q322.28 13.50 321.94 13.50L321.94 13.50Q321.65 13.50 321.65 13.36L321.65 13.36Q321.65 13.23 321.65 13.19Q321.65 13.15 321.69 13.12Q321.73 13.09 321.78 13.08Q321.83 13.08 321.97 13.03Q322.10 12.99 322.25 12.92L322.25 12.92Q322.59 12.75 322.69 12.26Q322.80 11.77 322.80 10.21L322.80 10.21L322.80 8.47Q322.80 8.09 322.82 7.29Q322.84 6.50 322.84 6.05L322.84 6.05Q322.84 5.67 322.81 4.77L322.81 4.77Q322.80 4.37 322.46 4.14Q322.13 3.92 321.68 3.91L321.68 3.91Q321.45 3.91 321.45 3.65ZM336.91 3.70L336.91 3.70Q336.91 3.50 337.30 3.50L337.30 3.50Q337.37 3.50 337.84 3.53Q338.31 3.56 338.84 3.56L338.84 3.56Q338.97 3.56 339.28 3.54Q339.60 3.53 339.75 3.53L339.75 3.53Q340.07 3.53 340.14 3.56Q340.21 3.58 340.21 3.68L340.21 3.68Q340.21 3.77 340.07 3.84Q339.93 3.91 339.79 4.02Q339.64 4.14 339.64 4.34L339.64 4.34Q339.64 4.52 339.69 4.71Q339.74 4.90 339.91 5.29Q340.07 5.68 340.25 6.08Q340.42 6.47 340.82 7.34Q341.22 8.22 341.60 9.07L341.60 9.07Q342.78 11.77 343.00 11.77L343.00 11.77Q343.07 11.77 343.81 10.08Q344.54 8.39 345.25 6.54Q345.97 4.69 345.97 4.35L345.97 4.35Q345.97 4.13 345.81 4.01Q345.65 3.89 345.46 3.87Q345.28 3.85 345.12 3.80Q344.96 3.75 344.96 3.64L344.96 3.64Q344.96 3.54 345.01 3.52Q345.06 3.50 345.25 3.50L345.25 3.50Q345.30 3.50 345.58 3.51Q345.86 3.51 346.14 3.51L346.14 3.51Q346.39 3.51 346.70 3.50Q347.02 3.49 347.38 3.49L347.38 3.49Q347.65 3.49 347.65 3.68L347.65 3.68Q347.65 3.78 347.56 3.85Q347.47 3.92 347.34 3.98Q347.21 4.03 347.05 4.21Q346.88 4.40 346.75 4.69L346.75 4.69L343.63 11.80Q343.29 12.56 342.97 13.34L342.97 13.34Q342.82 13.72 342.78 13.79Q342.73 13.86 342.66 13.86L342.66 13.86Q342.41 13.86 342.03 12.89L342.03 12.89Q341.67 11.98 340.59 9.65L340.59 9.65Q340.06 8.48 339.63 7.50Q339.19 6.52 339.00 6.06Q338.81 5.60 338.65 5.24Q338.49 4.87 338.41 4.72Q338.32 4.56 338.21 4.44L338.21 4.44Q337.97 4.17 337.72 4.06Q337.46 3.95 337.30 3.96Q337.13 3.96 337.02 3.91Q336.91 3.86 336.91 3.70ZM355.21 3.65L355.21 3.65Q355.21 3.46 355.60 3.46L355.60 3.46Q355.66 3.46 355.78 3.47Q355.91 3.49 355.98 3.49L355.98 3.49Q356.02 3.49 357.29 3.52Q358.57 3.56 359.39 3.56L359.39 3.56Q359.69 3.56 360.84 3.53Q362.00 3.50 362.19 3.50L362.19 3.50Q362.46 3.50 362.46 3.82L362.46 3.82Q362.46 3.91 362.38 4.38Q362.29 4.84 362.29 5.25L362.29 5.25Q362.29 5.38 362.22 5.47Q362.15 5.56 362.07 5.56L362.07 5.56Q361.86 5.56 361.86 5.26L361.86 5.26Q361.86 4.89 361.62 4.58Q361.38 4.27 361.03 4.26L361.03 4.26Q359.77 4.16 359.10 4.16L359.10 4.16L358.74 4.16Q358.01 4.16 357.89 4.26Q357.77 4.37 357.74 5.01L357.74 5.01Q357.69 6.02 357.69 7.35L357.69 7.35Q357.69 8.05 357.95 8.06L357.95 8.06L358.30 8.06L358.89 8.06L359.32 8.06Q360.16 8.06 360.44 8.01Q360.72 7.95 360.95 7.80L360.95 7.80Q361.21 7.62 361.27 7.28L361.27 7.28Q361.31 7.04 361.47 7.04L361.47 7.04Q361.59 7.04 361.62 7.08Q361.65 7.13 361.65 7.27L361.65 7.27Q361.65 7.36 361.59 7.91Q361.54 8.46 361.54 8.74L361.54 8.74Q361.54 9.00 361.56 9.24Q361.58 9.48 361.58 9.59L361.58 9.59Q361.58 9.94 361.48 9.94L361.48 9.94Q361.27 9.94 361.17 9.60L361.17 9.60Q360.98 9.02 360.82 8.92L360.82 8.92Q360.53 8.72 359.48 8.72L359.48 8.72Q359.06 8.72 358.80 8.72Q358.54 8.72 358.46 8.71Q358.39 8.71 358.34 8.71Q358.29 8.71 358.25 8.71L358.25 8.71Q357.67 8.71 357.67 8.97L357.67 8.97Q357.67 9.38 357.66 9.99Q357.64 10.60 357.64 10.99L357.64 10.99L357.64 11.55Q357.64 12.56 357.98 12.66L357.98 12.66Q358.33 12.77 358.58 12.77L358.58 12.77Q359.63 12.77 360.42 12.67Q361.21 12.57 361.61 12.42Q362.01 12.28 362.28 12.10Q362.54 11.93 362.62 11.78Q362.70 11.63 362.78 11.54Q362.85 11.44 362.94 11.44L362.94 11.44Q363.10 11.44 363.10 11.68L363.10 11.68Q363.10 12.28 362.50 12.89Q361.90 13.51 361.45 13.51L361.45 13.51Q360.44 13.51 359.18 13.44Q357.91 13.37 357.60 13.37L357.60 13.37Q357.21 13.37 356.62 13.43Q356.03 13.50 355.70 13.50L355.70 13.50Q355.40 13.50 355.40 13.36L355.40 13.36Q355.40 13.23 355.40 13.19Q355.40 13.15 355.45 13.12Q355.49 13.09 355.54 13.08Q355.59 13.08 355.72 13.03Q355.85 12.99 356.01 12.92L356.01 12.92Q356.34 12.75 356.45 12.26Q356.55 11.77 356.55 10.21L356.55 10.21L356.55 8.47Q356.55 8.09 356.57 7.29Q356.59 6.50 356.59 6.05L356.59 6.05Q356.59 5.67 356.57 4.77L356.57 4.77Q356.55 4.37 356.22 4.14Q355.88 3.92 355.43 3.91L355.43 3.91Q355.21 3.91 355.21 3.65ZM370.66 3.70L370.66 3.70Q370.66 3.47 371.07 3.47L371.07 3.47L373.39 3.47Q373.72 3.47 374.14 3.45Q374.56 3.43 374.79 3.43L374.79 3.43Q376.05 3.43 376.95 4.07Q377.85 4.70 377.85 5.78L377.85 5.78Q377.85 6.50 377.57 7.03Q377.30 7.57 376.97 7.81Q376.64 8.05 376.37 8.22Q376.10 8.40 376.10 8.46L376.10 8.46Q376.10 8.62 377.27 10.27Q378.45 11.91 378.88 12.38L378.88 12.38Q379.41 13.03 380.17 13.03L380.17 13.03Q380.37 13.03 380.37 13.20L380.37 13.20Q380.37 13.41 380.20 13.48Q380.03 13.55 379.33 13.55L379.33 13.55Q378.67 13.55 378.13 13.23L378.13 13.23Q377.43 12.82 375.76 10.09L375.76 10.09Q375.66 9.94 375.62 9.87L375.62 9.87Q374.95 8.78 374.58 8.78L374.58 8.78L374.29 8.78L373.44 8.78Q373.27 8.78 373.23 8.92Q373.20 9.06 373.20 9.77L373.20 9.77Q373.20 10.44 373.20 10.88Q373.20 11.31 373.21 11.43Q373.21 11.55 373.21 11.63Q373.21 11.70 373.21 11.75L373.21 11.75Q373.21 12.32 373.48 12.63Q373.74 12.95 374.07 13.00Q374.40 13.05 374.67 13.11Q374.93 13.17 374.93 13.31L374.93 13.31Q374.93 13.54 374.68 13.54L374.68 13.54Q374.67 13.54 373.72 13.49Q372.76 13.44 372.68 13.44L372.68 13.44Q372.27 13.44 371.71 13.47Q371.15 13.50 371.14 13.50L371.14 13.50Q370.85 13.50 370.85 13.27L370.85 13.27Q370.85 13.12 371.03 13.05Q371.21 12.99 371.43 12.96Q371.66 12.94 371.84 12.66Q372.02 12.38 372.02 11.86L372.02 11.86Q372.02 11.49 372.03 9.90Q372.04 8.30 372.04 7.45L372.04 7.45Q372.04 6.58 372.03 5.86Q372.02 5.14 372.02 5.08L372.02 5.08Q372.02 4.56 371.81 4.29Q371.60 4.02 371.34 3.98Q371.08 3.95 370.87 3.89Q370.66 3.84 370.66 3.70ZM373.20 5.54L373.20 5.94Q373.20 7.38 373.21 7.72Q373.23 8.06 373.31 8.12L373.31 8.12Q373.52 8.25 373.91 8.25L373.91 8.25L374.05 8.25L374.46 8.25Q375.65 8.25 376.16 7.70Q376.67 7.15 376.67 6.30L376.67 6.30Q376.67 5.43 375.99 4.72Q375.31 4.00 373.94 4.00L373.94 4.00Q373.42 4.00 373.31 4.28Q373.20 4.55 373.20 5.54L373.20 5.54ZM385.88 3.81L385.88 3.81Q385.88 3.65 386.04 3.61Q386.20 3.57 386.75 3.57L386.75 3.57Q386.83 3.57 387.14 3.58Q387.44 3.60 387.56 3.60L387.56 3.60Q387.72 3.60 388.13 3.59Q388.54 3.58 388.75 3.58L388.75 3.58Q389.45 3.58 389.45 3.75L389.45 3.75Q389.45 3.91 389.16 4.01Q388.86 4.12 388.86 4.24L388.86 4.24Q388.86 4.38 388.96 4.61Q389.05 4.83 389.14 4.97Q389.23 5.11 389.41 5.38Q389.59 5.64 389.62 5.70L389.62 5.70Q390.10 6.45 390.61 7.14Q391.12 7.83 391.19 7.83L391.19 7.83Q391.27 7.83 391.40 7.66Q391.52 7.50 391.75 7.13Q391.97 6.75 392.13 6.52L392.13 6.52Q392.17 6.45 392.33 6.22Q392.49 5.98 392.55 5.88Q392.62 5.78 392.74 5.58Q392.87 5.38 392.92 5.27Q392.98 5.17 393.06 5.02Q393.13 4.87 393.16 4.77Q393.19 4.68 393.19 4.59L393.19 4.59Q393.19 4.14 392.71 4.03L392.71 4.03Q392.66 4.02 392.55 4.00Q392.45 3.99 392.40 3.98Q392.35 3.96 392.28 3.93Q392.21 3.91 392.18 3.86Q392.15 3.81 392.15 3.74L392.15 3.74Q392.15 3.57 392.55 3.57L392.55 3.57Q392.62 3.57 392.81 3.58Q392.99 3.58 393.12 3.58L393.12 3.58Q393.44 3.58 393.90 3.59Q394.35 3.60 394.60 3.60L394.60 3.60Q395.29 3.60 395.29 3.81L395.29 3.81Q395.29 3.86 395.21 3.91Q395.12 3.95 394.97 4.02Q394.81 4.09 394.69 4.19L394.69 4.19Q394.11 4.63 393.00 6.31Q391.89 7.99 391.73 8.19L391.73 8.19Q391.51 8.47 391.45 8.81Q391.40 9.14 391.40 9.95L391.40 9.95Q391.40 10.14 391.41 10.73Q391.41 11.33 391.41 11.58L391.41 11.58L391.41 11.91Q391.41 12.38 391.57 12.64Q391.73 12.91 391.87 12.96Q392.01 13.01 392.15 13.01L392.15 13.01Q392.18 13.01 392.29 13.01Q392.41 13.02 392.43 13.02L392.43 13.02Q392.53 13.02 392.59 13.08Q392.64 13.15 392.64 13.22L392.64 13.22Q392.64 13.36 392.57 13.40Q392.50 13.44 392.31 13.44L392.31 13.44Q392.24 13.44 391.70 13.43Q391.16 13.43 390.91 13.43L390.91 13.43Q390.42 13.43 390.01 13.45Q389.61 13.48 389.37 13.48L389.37 13.48Q388.98 13.48 388.98 13.33L388.98 13.33Q388.98 13.20 389.05 13.15Q389.13 13.10 389.31 13.09Q389.49 13.08 389.58 13.05L389.58 13.05Q390.17 12.87 390.17 12.19L390.17 12.19Q390.17 12.11 390.17 11.92Q390.18 11.73 390.19 11.12Q390.19 10.50 390.19 9.35L390.19 9.35Q390.19 9.13 390.16 8.97Q390.12 8.81 390.08 8.65Q390.03 8.50 389.84 8.20Q389.65 7.91 389.47 7.64Q389.28 7.36 388.84 6.72Q388.40 6.08 388.00 5.46L388.00 5.46Q387.56 4.80 387.21 4.46Q386.86 4.12 386.67 4.05Q386.48 3.99 386.23 3.99L386.23 3.99Q385.88 3.99 385.88 3.81ZM402.78 8.69L402.78 8.69Q402.78 6.34 404.19 4.84Q405.61 3.33 408.20 3.33L408.20 3.33Q409.40 3.33 410.37 3.68Q411.33 4.03 411.89 4.54Q412.45 5.05 412.83 5.71Q413.21 6.37 413.35 6.92Q413.49 7.48 413.49 7.95L413.49 7.95Q413.49 9.86 412.75 11.16Q412.01 12.47 410.80 13.07Q409.58 13.66 408.00 13.66L408.00 13.66Q406.34 13.66 405.13 12.94Q403.91 12.21 403.35 11.10Q402.78 10.00 402.78 8.69ZM404.01 7.98L404.01 7.98Q404.01 8.54 404.17 9.19Q404.32 9.84 404.67 10.54Q405.02 11.23 405.52 11.78Q406.01 12.33 406.78 12.69Q407.54 13.05 408.45 13.05L408.45 13.05Q408.93 13.05 409.45 12.90Q409.98 12.75 410.49 12.45Q411.01 12.14 411.42 11.70Q411.82 11.26 412.08 10.62Q412.34 9.98 412.34 9.24L412.34 9.24Q412.34 6.71 411.01 5.30Q409.68 3.89 407.72 3.89L407.72 3.89Q406.18 3.89 405.10 4.93Q404.01 5.96 404.01 7.98ZM421.18 3.77L421.18 3.77Q421.18 3.68 421.27 3.60Q421.37 3.53 421.53 3.53L421.53 3.53Q421.61 3.53 421.81 3.54Q422.00 3.54 422.06 3.54L422.06 3.54Q422.27 3.54 422.45 3.53Q422.63 3.51 422.74 3.51L422.74 3.51Q422.87 3.51 423.04 3.59Q423.21 3.67 423.23 3.75L423.23 3.75Q423.26 3.79 423.39 3.94Q423.51 4.09 423.72 4.33Q423.93 4.56 424.10 4.79L424.10 4.79Q426.01 7.27 429.20 10.77L429.20 10.77Q429.28 10.86 429.40 10.99Q429.52 11.12 429.57 11.18Q429.62 11.24 429.67 11.30Q429.73 11.35 429.77 11.38Q429.80 11.40 429.83 11.40L429.83 11.40Q429.97 11.40 429.97 10.53L429.97 10.53L429.97 8.89Q429.97 7.95 429.96 7.31Q429.95 6.66 429.95 6.38Q429.94 6.09 429.94 6.02L429.94 6.02L429.94 5.92Q429.94 5.45 429.88 5.11Q429.81 4.77 429.73 4.59Q429.65 4.41 429.49 4.28Q429.32 4.16 429.21 4.12Q429.10 4.09 428.89 4.05Q428.68 4.00 428.60 3.98L428.60 3.98Q428.32 3.89 428.32 3.74L428.32 3.74Q428.32 3.53 428.58 3.53L428.58 3.53Q428.67 3.53 429.25 3.54Q429.84 3.54 429.91 3.54L429.91 3.54Q430.25 3.54 430.66 3.53Q431.07 3.51 431.17 3.51L431.17 3.51Q431.41 3.51 431.50 3.56Q431.59 3.61 431.59 3.75L431.59 3.75Q431.59 3.81 431.52 3.86Q431.44 3.91 431.35 3.94Q431.27 3.98 431.19 4.00L431.19 4.00L431.10 4.03Q430.64 4.28 430.64 5.61L430.64 5.61L430.64 6.15Q430.64 7.21 430.56 9.83Q430.49 12.46 430.49 13.08L430.49 13.08L430.49 13.36Q430.49 13.68 430.29 13.68L430.29 13.68Q430.16 13.68 430.07 13.58L430.07 13.58Q425.42 8.19 424.52 7.17Q423.61 6.16 423.51 6.16L423.51 6.16Q423.37 6.16 423.37 7.11L423.37 7.11Q423.37 8.44 423.32 9.97Q423.26 11.51 423.26 11.65L423.26 11.65Q423.26 12.28 423.48 12.61Q423.70 12.94 423.95 12.98Q424.20 13.02 424.42 13.07Q424.63 13.12 424.63 13.26L424.63 13.26Q424.63 13.41 424.59 13.45Q424.54 13.50 424.41 13.50L424.41 13.50Q424.31 13.50 423.97 13.48Q423.63 13.47 422.91 13.47L422.91 13.47Q422.79 13.47 422.39 13.48Q422.00 13.50 421.72 13.50L421.72 13.50Q421.41 13.50 421.41 13.27L421.41 13.27Q421.41 13.15 421.60 13.11Q421.78 13.08 422.04 12.89Q422.31 12.71 422.45 12.21L422.45 12.21Q422.53 11.89 422.66 9.60Q422.79 7.32 422.79 6.45L422.79 6.45Q422.79 5.25 422.45 4.65Q422.11 4.06 421.36 3.98L421.36 3.98Q421.18 3.96 421.18 3.77ZM439.35 3.65L439.35 3.65Q439.35 3.46 439.74 3.46L439.74 3.46Q439.80 3.46 439.92 3.47Q440.05 3.49 440.12 3.49L440.12 3.49Q440.16 3.49 441.43 3.52Q442.71 3.56 443.53 3.56L443.53 3.56Q443.83 3.56 444.98 3.53Q446.14 3.50 446.33 3.50L446.33 3.50Q446.60 3.50 446.60 3.82L446.60 3.82Q446.60 3.91 446.52 4.38Q446.43 4.84 446.43 5.25L446.43 5.25Q446.43 5.38 446.36 5.47Q446.29 5.56 446.21 5.56L446.21 5.56Q446.00 5.56 446.00 5.26L446.00 5.26Q446.00 4.89 445.76 4.58Q445.52 4.27 445.17 4.26L445.17 4.26Q443.91 4.16 443.24 4.16L443.24 4.16L442.88 4.16Q442.15 4.16 442.03 4.26Q441.91 4.37 441.88 5.01L441.88 5.01Q441.83 6.02 441.83 7.35L441.83 7.35Q441.83 8.05 442.09 8.06L442.09 8.06L442.44 8.06L443.03 8.06L443.46 8.06Q444.30 8.06 444.58 8.01Q444.86 7.95 445.09 7.80L445.09 7.80Q445.35 7.62 445.41 7.28L445.41 7.28Q445.45 7.04 445.61 7.04L445.61 7.04Q445.73 7.04 445.76 7.08Q445.79 7.13 445.79 7.27L445.79 7.27Q445.79 7.36 445.73 7.91Q445.68 8.46 445.68 8.74L445.68 8.74Q445.68 9.00 445.70 9.24Q445.72 9.48 445.72 9.59L445.72 9.59Q445.72 9.94 445.62 9.94L445.62 9.94Q445.41 9.94 445.31 9.60L445.31 9.60Q445.12 9.02 444.96 8.92L444.96 8.92Q444.67 8.72 443.62 8.72L443.62 8.72Q443.20 8.72 442.94 8.72Q442.68 8.72 442.60 8.71Q442.53 8.71 442.48 8.71Q442.43 8.71 442.39 8.71L442.39 8.71Q441.81 8.71 441.81 8.97L441.81 8.97Q441.81 9.38 441.80 9.99Q441.78 10.60 441.78 10.99L441.78 10.99L441.78 11.55Q441.78 12.56 442.12 12.66L442.12 12.66Q442.47 12.77 442.72 12.77L442.72 12.77Q443.77 12.77 444.56 12.67Q445.35 12.57 445.75 12.42Q446.15 12.28 446.42 12.10Q446.68 11.93 446.76 11.78Q446.84 11.63 446.92 11.54Q446.99 11.44 447.08 11.44L447.08 11.44Q447.24 11.44 447.24 11.68L447.24 11.68Q447.24 12.28 446.64 12.89Q446.04 13.51 445.59 13.51L445.59 13.51Q444.58 13.51 443.32 13.44Q442.05 13.37 441.74 13.37L441.74 13.37Q441.35 13.37 440.76 13.43Q440.17 13.50 439.84 13.50L439.84 13.50Q439.54 13.50 439.54 13.36L439.54 13.36Q439.54 13.23 439.54 13.19Q439.54 13.15 439.59 13.12Q439.63 13.09 439.68 13.08Q439.73 13.08 439.86 13.03Q439.99 12.99 440.15 12.92L440.15 12.92Q440.48 12.75 440.59 12.26Q440.69 11.77 440.69 10.21L440.69 10.21L440.69 8.47Q440.69 8.09 440.71 7.29Q440.73 6.50 440.73 6.05L440.73 6.05Q440.73 5.67 440.71 4.77L440.71 4.77Q440.69 4.37 440.36 4.14Q440.02 3.92 439.57 3.91L439.57 3.91Q439.35 3.91 439.35 3.65ZM455.71 13.15Q455.28 12.84 455.28 12.67Q455.28 12.50 455.71 12.12L455.71 12.12Q455.77 12.07 455.88 11.93Q455.98 11.79 456.09 11.71Q456.19 11.63 456.30 11.63Q456.41 11.63 456.88 12.18L456.88 12.18Q456.92 12.22 457.04 12.33Q457.16 12.43 457.23 12.52Q457.30 12.61 457.30 12.67L457.30 12.67Q457.30 12.74 457.23 12.82Q457.16 12.89 457.02 13.01Q456.88 13.12 456.81 13.17L456.81 13.17Q456.75 13.23 456.65 13.37Q456.54 13.51 456.45 13.59Q456.36 13.66 456.27 13.66L456.27 13.66Q456.15 13.66 455.95 13.42Q455.76 13.17 455.71 13.15L455.71 13.15Z"></path></g></svg>